<?xml version="1.0" encoding="UTF-8"?>
<!DOCTYPE svg PUBLIC "-//W3C//DTD SVG 1.1//EN" "http://www.w3.org/Graphics/SVG/1.1/DTD/svg11.dtd">
<svg xmlns="http://www.w3.org/2000/svg" version="1.1" width="500px" height="500px" style="shape-rendering:geometricPrecision; text-rendering:geometricPrecision; image-rendering:optimizeQuality; fill-rule:evenodd; clip-rule:evenodd" xmlns:xlink="http://www.w3.org/1999/xlink">
<g><path style="opacity:1" fill="#fbf8fa" d="M -0.5,-0.5 C 166.167,-0.5 332.833,-0.5 499.5,-0.5C 499.5,166.167 499.5,332.833 499.5,499.5C 332.833,499.5 166.167,499.5 -0.5,499.5C -0.5,332.833 -0.5,166.167 -0.5,-0.5 Z"/></g>
<g><path style="opacity:1" fill="#f8eea9" d="M 225.5,153.5 C 225.38,152.414 224.713,151.747 223.5,151.5C 219.446,150.897 215.446,150.064 211.5,149C 209.46,145.086 207.293,141.252 205,137.5C 202.833,141.167 200.667,144.833 198.5,148.5C 194.879,151.144 190.879,152.977 186.5,154C 188.37,156.04 190.37,157.873 192.5,159.5C 193.341,161.379 193.675,163.379 193.5,165.5C 191.875,168.65 191.542,171.983 192.5,175.5C 196.606,173.364 200.772,171.364 205,169.5C 208.293,170.556 211.126,172.223 213.5,174.5C 210.729,173.367 207.896,172.367 205,171.5C 199.869,173.651 194.703,175.651 189.5,177.5C 190.372,172.474 191.372,167.474 192.5,162.5C 188.981,158.148 184.981,154.314 180.5,151C 183.424,150.012 186.424,149.346 189.5,149C 188.906,148.536 188.239,148.369 187.5,148.5C 188.568,147.566 189.901,147.232 191.5,147.5C 193.364,148.793 195.364,148.793 197.5,147.5C 199.495,142.84 201.995,138.506 205,134.5C 207.627,138.919 210.127,143.419 212.5,148C 217.948,148.753 223.281,149.919 228.5,151.5C 227.643,152.425 226.643,153.092 225.5,153.5 Z"/></g>
<g><path style="opacity:1" fill="#dbc25b" d="M 262.5,195.5 C 263.299,198.43 263.632,201.43 263.5,204.5C 257.746,202.459 252.08,200.126 246.5,197.5C 241.385,199.557 236.385,201.891 231.5,204.5C 230.357,201.502 230.357,198.502 231.5,195.5C 234.012,189.863 232.679,185.529 227.5,182.5C 225.873,180.37 224.04,178.37 222,176.5C 221.517,177.448 221.351,178.448 221.5,179.5C 215.859,177.599 210.359,175.265 205,172.5C 199.439,175.031 193.939,177.697 188.5,180.5C 187.795,177.911 187.795,175.244 188.5,172.5C 189.85,169.048 190.35,165.381 190,161.5C 185.686,158.353 181.852,154.686 178.5,150.5C 181.193,148.73 184.193,148.063 187.5,148.5C 188.239,148.369 188.906,148.536 189.5,149C 186.424,149.346 183.424,150.012 180.5,151C 184.981,154.314 188.981,158.148 192.5,162.5C 191.372,167.474 190.372,172.474 189.5,177.5C 194.703,175.651 199.869,173.651 205,171.5C 207.896,172.367 210.729,173.367 213.5,174.5C 214.833,174.5 216.167,174.5 217.5,174.5C 216.997,169.828 216.831,165.161 217,160.5C 218.704,158.627 220.537,156.96 222.5,155.5C 222.833,155.5 223.167,155.5 223.5,155.5C 224.5,155.167 225.167,154.5 225.5,153.5C 226.643,153.092 227.643,152.425 228.5,151.5C 223.281,149.919 217.948,148.753 212.5,148C 210.127,143.419 207.627,138.919 205,134.5C 201.995,138.506 199.495,142.84 197.5,147.5C 195.364,148.793 193.364,148.793 191.5,147.5C 193.722,147.822 195.556,147.155 197,145.5C 199.246,140.674 201.746,136.008 204.5,131.5C 207.997,136.51 211.33,141.676 214.5,147C 220.243,147.63 225.91,148.63 231.5,150C 227.721,153.779 223.887,157.613 220,161.5C 219.83,165.493 219.996,169.493 220.5,173.5C 226.539,172.995 232.539,172.162 238.5,171C 241.136,165.552 244.136,160.386 247.5,155.5C 250.035,160.736 252.701,165.903 255.5,171C 261.562,171.913 267.562,173.08 273.5,174.5C 269.849,178.652 266.016,182.652 262,186.5C 261.699,189.507 261.865,192.507 262.5,195.5 Z"/></g>
<g><path style="opacity:1" fill="#edd81f" d="M 222.5,155.5 C 220.537,156.96 218.704,158.627 217,160.5C 216.831,165.161 216.997,169.828 217.5,174.5C 216.167,174.5 214.833,174.5 213.5,174.5C 211.126,172.223 208.293,170.556 205,169.5C 200.772,171.364 196.606,173.364 192.5,175.5C 191.542,171.983 191.875,168.65 193.5,165.5C 196.343,164.229 199.343,163.396 202.5,163C 206.167,160 209.833,157 213.5,154C 216.863,153.073 219.863,153.573 222.5,155.5 Z"/></g>
<g><path style="opacity:1" fill="#f0df53" d="M 223.5,155.5 C 223.167,155.5 222.833,155.5 222.5,155.5C 219.863,153.573 216.863,153.073 213.5,154C 209.833,157 206.167,160 202.5,163C 199.343,163.396 196.343,164.229 193.5,165.5C 193.675,163.379 193.341,161.379 192.5,159.5C 193.714,157.075 195.714,155.575 198.5,155C 206.056,152.047 213.722,151.381 221.5,153C 222.756,153.417 223.423,154.25 223.5,155.5 Z"/></g>
<g><path style="opacity:1" fill="#f7ea88" d="M 225.5,153.5 C 225.167,154.5 224.5,155.167 223.5,155.5C 223.423,154.25 222.756,153.417 221.5,153C 213.722,151.381 206.056,152.047 198.5,155C 195.714,155.575 193.714,157.075 192.5,159.5C 190.37,157.873 188.37,156.04 186.5,154C 190.879,152.977 194.879,151.144 198.5,148.5C 200.667,144.833 202.833,141.167 205,137.5C 207.293,141.252 209.46,145.086 211.5,149C 215.446,150.064 219.446,150.897 223.5,151.5C 224.713,151.747 225.38,152.414 225.5,153.5 Z"/></g>
<g><path style="opacity:1" fill="#e7d26a" d="M 165.5,172.5 C 165.785,174.288 165.452,175.955 164.5,177.5C 159.553,174.443 154.386,171.776 149,169.5C 143.527,171.903 138.194,174.57 133,177.5C 132.366,174.445 132.532,171.445 133.5,168.5C 134.192,165.103 134.192,161.77 133.5,158.5C 129.5,155.167 125.833,151.5 122.5,147.5C 128.3,145.55 134.3,144.383 140.5,144C 142.618,138.257 145.618,133.09 149.5,128.5C 152.133,133.48 154.8,138.48 157.5,143.5C 163.591,144.617 169.591,145.95 175.5,147.5C 171.849,151.652 168.016,155.652 164,159.5C 164.002,163.86 164.502,168.193 165.5,172.5 Z"/></g>
<g><path style="opacity:1" fill="#f0dc32" d="M 167.5,151.5 C 167.5,151.833 167.5,152.167 167.5,152.5C 165.203,154.294 163.037,156.294 161,158.5C 161.338,163.194 161.172,167.861 160.5,172.5C 156.673,170.754 153.007,168.754 149.5,166.5C 144.921,168.706 140.421,171.039 136,173.5C 135.902,169.139 136.402,164.805 137.5,160.5C 137.43,159.228 137.097,158.062 136.5,157C 142.471,154.191 148.804,152.858 155.5,153C 159.368,150.516 163.368,150.016 167.5,151.5 Z"/></g>
<g><path style="opacity:1" fill="#f7eb95" d="M 156.5,147.5 C 148.136,147.345 140.469,149.512 133.5,154C 134.595,156.975 134.262,157.142 132.5,154.5C 131.04,152.537 129.373,150.704 127.5,149C 132.601,148.368 137.601,147.368 142.5,146C 144.664,142.185 146.831,138.351 149,134.5C 151.512,138.861 154.012,143.194 156.5,147.5 Z"/></g>
<g><path style="opacity:1" fill="#faf3c4" d="M 167.5,152.5 C 167.5,152.167 167.5,151.833 167.5,151.5C 168.627,150.878 169.627,150.045 170.5,149C 165.882,148.006 161.215,147.506 156.5,147.5C 154.012,143.194 151.512,138.861 149,134.5C 146.831,138.351 144.664,142.185 142.5,146C 137.601,147.368 132.601,148.368 127.5,149C 129.373,150.704 131.04,152.537 132.5,154.5C 129.437,152.949 126.771,150.782 124.5,148C 130.205,147.145 135.871,146.145 141.5,145C 143.873,140.419 146.373,135.919 149,131.5C 151.627,135.919 154.127,140.419 156.5,145C 162.13,146.185 167.797,147.185 173.5,148C 171.886,150.127 169.886,151.627 167.5,152.5 Z"/></g>
<g><path style="opacity:1" fill="#faf1bb" d="M 266.5,179.5 C 266.414,178.504 266.748,177.671 267.5,177C 263.167,176 258.833,175 254.5,174C 249.766,167.065 244.766,167.065 239.5,174C 235.167,175 230.833,176 226.5,177C 227.823,177.816 228.489,178.983 228.5,180.5C 226.521,179.188 224.855,177.521 223.5,175.5C 228.455,174.422 233.455,173.589 238.5,173C 241.459,168.249 244.293,163.416 247,158.5C 249.707,163.416 252.541,168.249 255.5,173C 260.631,173.465 265.631,174.465 270.5,176C 269.295,177.376 267.962,178.542 266.5,179.5 Z"/></g>
<g><path style="opacity:1" fill="#f6e986" d="M 266.5,179.5 C 264.539,181.963 262.372,184.297 260,186.5C 260.653,191.794 260.987,197.128 261,202.5C 256.667,199.665 252,197.665 247,196.5C 243.015,197.41 239.182,198.743 235.5,200.5C 238.78,197.609 242.613,195.609 247,194.5C 250.996,195.747 254.83,197.414 258.5,199.5C 259.011,194.874 259.178,190.207 259,185.5C 261.167,183.333 263.333,181.167 265.5,179C 264.906,178.536 264.239,178.369 263.5,178.5C 260.829,177.702 257.996,177.035 255,176.5C 247.643,177.131 240.476,178.631 233.5,181C 232.332,182.871 232.832,184.371 235,185.5C 235.494,187.134 235.66,188.801 235.5,190.5C 235.167,190.5 234.833,190.5 234.5,190.5C 234.657,189.127 234.49,187.793 234,186.5C 231.96,184.63 230.127,182.63 228.5,180.5C 228.489,178.983 227.823,177.816 226.5,177C 230.833,176 235.167,175 239.5,174C 244.766,167.065 249.766,167.065 254.5,174C 258.833,175 263.167,176 267.5,177C 266.748,177.671 266.414,178.504 266.5,179.5 Z"/></g>
<g><path style="opacity:1" fill="#dac25a" d="M 120.5,172.5 C 123.358,173.166 126.358,173.833 129.5,174.5C 128.476,175.852 127.476,177.185 126.5,178.5C 123.536,180.962 120.703,183.629 118,186.5C 117.842,190.891 118.342,195.224 119.5,199.5C 119.5,201.167 119.5,202.833 119.5,204.5C 113.26,201.879 106.927,199.545 100.5,197.5C 100.866,196.305 101.699,195.639 103,195.5C 107.806,197.57 112.473,199.903 117,202.5C 117.097,197.105 116.764,191.772 116,186.5C 119.5,183 123,179.5 126.5,176C 122.938,174.739 119.271,173.906 115.5,173.5C 113.278,173.822 111.444,173.155 110,171.5C 107.921,167.007 105.588,162.674 103,158.5C 100.797,163.744 97.9638,168.578 94.5,173C 89.4259,173.426 84.4259,174.259 79.5,175.5C 82.8176,179.318 86.3176,182.985 90,186.5C 90.49,187.793 90.6567,189.127 90.5,190.5C 88.8478,194.244 88.3478,198.244 89,202.5C 90.5843,201.139 92.4176,200.472 94.5,200.5C 92.3924,202.059 90.0591,203.392 87.5,204.5C 86.6143,203.675 86.281,202.675 86.5,201.5C 87.3355,196.496 87.8355,191.496 88,186.5C 83.9844,182.652 80.1511,178.652 76.5,174.5C 82.4377,173.08 88.4377,171.913 94.5,171C 97.1364,165.552 100.136,160.386 103.5,155.5C 106.227,160.392 108.727,165.392 111,170.5C 113.997,171.866 117.164,172.533 120.5,172.5 Z"/></g>
<g><path style="opacity:1" fill="#fbf3c2" d="M 115.5,173.5 C 114.054,174.613 112.387,174.78 110.5,174C 107.371,170.248 104.871,166.081 103,161.5C 101.129,166.081 98.6288,170.248 95.5,174C 91.1667,175 86.8333,176 82.5,177C 86.5409,180.185 89.5409,184.019 91.5,188.5C 91.5,189.167 91.5,189.833 91.5,190.5C 91.1667,190.5 90.8333,190.5 90.5,190.5C 90.6567,189.127 90.49,187.793 90,186.5C 86.3176,182.985 82.8176,179.318 79.5,175.5C 84.4259,174.259 89.4259,173.426 94.5,173C 97.9638,168.578 100.797,163.744 103,158.5C 105.588,162.674 107.921,167.007 110,171.5C 111.444,173.155 113.278,173.822 115.5,173.5 Z"/></g>
<g><path style="opacity:1" fill="#dcd8d7" d="M 133.5,168.5 C 132.532,171.445 132.366,174.445 133,177.5C 138.194,174.57 143.527,171.903 149,169.5C 154.386,171.776 159.553,174.443 164.5,177.5C 165.452,175.955 165.785,174.288 165.5,172.5C 168.776,169.781 171.109,170.615 172.5,175C 170.812,177.019 168.812,178.686 166.5,180C 152.948,182.368 139.615,181.868 126.5,178.5C 127.476,177.185 128.476,175.852 129.5,174.5C 126.358,173.833 123.358,173.166 120.5,172.5C 125.509,172.911 129.843,171.578 133.5,168.5 Z"/></g>
<g><path style="opacity:1" fill="#e1dede" d="M 188.5,172.5 C 187.795,175.244 187.795,177.911 188.5,180.5C 193.939,177.697 199.439,175.031 205,172.5C 210.359,175.265 215.859,177.599 221.5,179.5C 221.351,178.448 221.517,177.448 222,176.5C 224.04,178.37 225.873,180.37 227.5,182.5C 223.141,182.466 218.808,182.799 214.5,183.5C 212.667,183.585 211.334,184.252 210.5,185.5C 208.167,185.5 205.833,185.5 203.5,185.5C 202.737,184.732 201.737,184.232 200.5,184C 193.466,184.284 186.799,182.951 180.5,180C 178.078,177.888 178.078,175.888 180.5,174C 183.014,172.748 185.68,172.248 188.5,172.5 Z"/></g>
<g><path style="opacity:1" fill="#f1e15e" d="M 263.5,178.5 C 257.074,177.38 252.074,179.547 248.5,185C 244.342,187.328 240.008,189.161 235.5,190.5C 235.66,188.801 235.494,187.134 235,185.5C 232.832,184.371 232.332,182.871 233.5,181C 240.476,178.631 247.643,177.131 255,176.5C 257.996,177.035 260.829,177.702 263.5,178.5 Z"/></g>
<g><path style="opacity:1" fill="#efd923" d="M 263.5,178.5 C 264.239,178.369 264.906,178.536 265.5,179C 263.333,181.167 261.167,183.333 259,185.5C 259.178,190.207 259.011,194.874 258.5,199.5C 254.83,197.414 250.996,195.747 247,194.5C 242.613,195.609 238.78,197.609 235.5,200.5C 234.351,200.209 233.684,199.376 233.5,198C 234.159,195.538 234.493,193.038 234.5,190.5C 234.833,190.5 235.167,190.5 235.5,190.5C 240.008,189.161 244.342,187.328 248.5,185C 252.074,179.547 257.074,177.38 263.5,178.5 Z"/></g>
<g><path style="opacity:1" fill="#f5b885" d="M 200.5,232.5 C 200.5,231.833 200.5,231.167 200.5,230.5C 199.889,220.335 199.222,210.168 198.5,200C 197.851,189.296 202.517,185.296 212.5,188C 215.962,191.758 217.629,196.258 217.5,201.5C 216.164,212.856 214.664,224.189 213,235.5C 210.035,228.943 205.868,227.943 200.5,232.5 Z"/></g>
<g><path style="opacity:1" fill="#eed823" d="M 91.5,190.5 C 91.5,189.833 91.5,189.167 91.5,188.5C 92.404,187.791 92.7373,186.791 92.5,185.5C 97.175,183.283 102.175,182.116 107.5,182C 108.551,180.615 109.884,179.615 111.5,179C 114.833,178.333 118.167,178.333 121.5,179C 119.333,181.167 117.167,183.333 115,185.5C 115.464,190.182 115.297,194.849 114.5,199.5C 110.83,197.414 106.996,195.747 103,194.5C 99.0038,195.747 95.1705,197.414 91.5,199.5C 90.2588,196.463 90.2588,193.463 91.5,190.5 Z"/></g>
<g><path style="opacity:1" fill="#f5e783" d="M 115.5,173.5 C 119.271,173.906 122.938,174.739 126.5,176C 123,179.5 119.5,183 116,186.5C 116.764,191.772 117.097,197.105 117,202.5C 112.473,199.903 107.806,197.57 103,195.5C 101.699,195.639 100.866,196.305 100.5,197.5C 98.8185,199.008 96.8185,200.008 94.5,200.5C 92.4176,200.472 90.5843,201.139 89,202.5C 88.3478,198.244 88.8478,194.244 90.5,190.5C 90.8333,190.5 91.1667,190.5 91.5,190.5C 90.2588,193.463 90.2588,196.463 91.5,199.5C 95.1705,197.414 99.0038,195.747 103,194.5C 106.996,195.747 110.83,197.414 114.5,199.5C 115.297,194.849 115.464,190.182 115,185.5C 117.167,183.333 119.333,181.167 121.5,179C 118.167,178.333 114.833,178.333 111.5,179C 109.884,179.615 108.551,180.615 107.5,182C 102.175,182.116 97.175,183.283 92.5,185.5C 92.7373,186.791 92.404,187.791 91.5,188.5C 89.5409,184.019 86.5409,180.185 82.5,177C 86.8333,176 91.1667,175 95.5,174C 98.6288,170.248 101.129,166.081 103,161.5C 104.871,166.081 107.371,170.248 110.5,174C 112.387,174.78 114.054,174.613 115.5,173.5 Z"/></g>
<g><path style="opacity:1" fill="#fbf7f8" d="M 227.5,182.5 C 232.679,185.529 234.012,189.863 231.5,195.5C 225.786,195.385 222.953,198.051 223,203.5C 223.5,204.667 224.333,205.5 225.5,206C 240.65,207.484 255.65,207.984 270.5,207.5C 270.461,208.583 270.127,209.583 269.5,210.5C 263.118,211.649 256.785,212.982 250.5,214.5C 254.792,218.29 258.958,222.29 263,226.5C 263.092,230.218 262.592,233.885 261.5,237.5C 258.11,237.519 255.777,239.019 254.5,242C 254.759,243.261 255.426,244.261 256.5,245C 259.53,245.578 262.197,246.745 264.5,248.5C 247.5,248.5 230.5,248.5 213.5,248.5C 216.075,230.237 217.575,211.904 218,193.5C 216.653,189.656 214.153,186.989 210.5,185.5C 211.334,184.252 212.667,183.585 214.5,183.5C 218.808,182.799 223.141,182.466 227.5,182.5 Z"/></g>
<g><path style="opacity:1" fill="#e1dedf" d="M 231.5,195.5 C 230.357,198.502 230.357,201.502 231.5,204.5C 236.385,201.891 241.385,199.557 246.5,197.5C 252.08,200.126 257.746,202.459 263.5,204.5C 263.632,201.43 263.299,198.43 262.5,195.5C 266.517,197.198 270.517,198.865 274.5,200.5C 273.404,203.032 272.071,205.365 270.5,207.5C 255.65,207.984 240.65,207.484 225.5,206C 224.333,205.5 223.5,204.667 223,203.5C 222.953,198.051 225.786,195.385 231.5,195.5 Z"/></g>
<g><path style="opacity:1" fill="#d5d1d0" d="M 100.5,197.5 C 106.927,199.545 113.26,201.879 119.5,204.5C 119.5,202.833 119.5,201.167 119.5,199.5C 121.642,198.402 122.975,199.236 123.5,202C 120.845,204.99 117.512,206.656 113.5,207C 104.03,207.979 94.6962,207.479 85.5,205.5C 85.2322,203.901 85.5655,202.568 86.5,201.5C 86.281,202.675 86.6143,203.675 87.5,204.5C 90.0591,203.392 92.3924,202.059 94.5,200.5C 96.8185,200.008 98.8185,199.008 100.5,197.5 Z"/></g>
<g><path style="opacity:1" fill="#dec65c" d="M 293.5,235.5 C 293.704,238.518 294.037,241.518 294.5,244.5C 288.989,241.915 283.322,239.582 277.5,237.5C 271.953,239.272 266.62,241.605 261.5,244.5C 260.943,242.282 260.943,239.949 261.5,237.5C 262.592,233.885 263.092,230.218 263,226.5C 258.958,222.29 254.792,218.29 250.5,214.5C 256.785,212.982 263.118,211.649 269.5,210.5C 270.127,209.583 270.461,208.583 270.5,207.5C 272.071,205.365 273.404,203.032 274.5,200.5C 275.237,198.695 276.237,197.029 277.5,195.5C 280.421,200.341 283.088,205.341 285.5,210.5C 291.785,212.018 298.118,213.351 304.5,214.5C 300.471,218.606 296.305,222.606 292,226.5C 291.863,229.68 292.363,232.68 293.5,235.5 Z"/></g>
<g><path style="opacity:1" fill="#faf2bf" d="M 296.5,219.5 C 297.141,218.518 297.807,217.518 298.5,216.5C 296.604,215.534 294.604,215.201 292.5,215.5C 290.031,214.683 287.365,214.183 284.5,214C 282.529,209.881 280.196,206.047 277.5,202.5C 274.804,206.047 272.471,209.881 270.5,214C 265.972,214.472 261.639,215.472 257.5,217C 258.373,218.045 259.373,218.878 260.5,219.5C 262.167,221.833 264.167,223.833 266.5,225.5C 266.326,227.861 265.993,230.194 265.5,232.5C 264.686,230.369 264.186,228.036 264,225.5C 260.625,221.956 257.125,218.623 253.5,215.5C 259.293,214.533 264.96,213.2 270.5,211.5C 272.579,207.007 274.912,202.674 277.5,198.5C 280.088,202.674 282.421,207.007 284.5,211.5C 290.04,213.2 295.707,214.533 301.5,215.5C 300.395,217.611 298.729,218.945 296.5,219.5 Z"/></g>
<g><path style="opacity:1" fill="#f7eb91" d="M 292.5,215.5 C 281.684,215.748 271.018,217.081 260.5,219.5C 259.373,218.878 258.373,218.045 257.5,217C 261.639,215.472 265.972,214.472 270.5,214C 272.471,209.881 274.804,206.047 277.5,202.5C 280.196,206.047 282.529,209.881 284.5,214C 287.365,214.183 290.031,214.683 292.5,215.5 Z"/></g>
<g><path style="opacity:1" fill="#f4e56a" d="M 292.5,215.5 C 294.604,215.201 296.604,215.534 298.5,216.5C 297.807,217.518 297.141,218.518 296.5,219.5C 296.167,219.5 295.833,219.5 295.5,219.5C 290.418,217.646 285.752,218.479 281.5,222C 276.095,221.975 271.095,223.142 266.5,225.5C 264.167,223.833 262.167,221.833 260.5,219.5C 271.018,217.081 281.684,215.748 292.5,215.5 Z"/></g>
<g><path style="opacity:1" fill="#fce727" d="M 199.5,234.5 C 199.5,235.167 199.5,235.833 199.5,236.5C 194.007,230.517 187.34,226.35 179.5,224C 182.779,223.027 185.779,221.527 188.5,219.5C 194.081,223.083 197.747,228.083 199.5,234.5 Z"/></g>
<g><path style="opacity:1" fill="#efda29" d="M 295.5,219.5 C 292.744,221.558 290.41,224.058 288.5,227C 289.749,231.078 290.416,235.245 290.5,239.5C 286.11,237.808 281.777,235.808 277.5,233.5C 273.524,236.322 269.191,238.322 264.5,239.5C 264.448,237.097 264.781,234.764 265.5,232.5C 265.993,230.194 266.326,227.861 266.5,225.5C 271.095,223.142 276.095,221.975 281.5,222C 285.752,218.479 290.418,217.646 295.5,219.5 Z"/></g>
<g><path style="opacity:1" fill="#febe17" d="M 198.5,226.5 C 198.66,228.153 199.326,229.486 200.5,230.5C 200.5,231.167 200.5,231.833 200.5,232.5C 200.672,233.492 200.338,234.158 199.5,234.5C 197.747,228.083 194.081,223.083 188.5,219.5C 185.779,221.527 182.779,223.027 179.5,224C 187.34,226.35 194.007,230.517 199.5,236.5C 199.5,237.5 199.5,238.5 199.5,239.5C 189.067,226.715 175.734,222.548 159.5,227C 131.837,236.829 122.17,255.662 130.5,283.5C 129.508,283.672 128.842,283.338 128.5,282.5C 127.022,277.252 125.855,271.919 125,266.5C 123.791,269.755 121.958,272.589 119.5,275C 120.183,279.295 122.516,281.795 126.5,282.5C 124.379,282.675 122.379,282.341 120.5,281.5C 119.513,279.527 118.513,277.527 117.5,275.5C 108.792,273.78 105.292,268.447 107,259.5C 108.756,254.156 110.922,248.989 113.5,244C 107.004,240.877 104.504,235.71 106,228.5C 110.206,222.063 116.206,219.063 124,219.5C 130.495,219.456 136.495,221.123 142,224.5C 141.963,210.9 148.463,202.233 161.5,198.5C 167.339,199.178 170.172,202.511 170,208.5C 177.235,205.695 184.402,205.862 191.5,209C 192.966,212.039 192.633,214.872 190.5,217.5C 193.218,220.545 195.884,223.545 198.5,226.5 Z"/></g>
<g><path style="opacity:1" fill="#fee708" d="M 120.5,220.5 C 130.544,220.792 139.544,223.959 147.5,230C 136.122,230.903 125.789,234.569 116.5,241C 112.316,242.165 109.483,240.665 108,236.5C 106.348,231.154 107.848,226.987 112.5,224C 115.309,222.907 117.976,221.74 120.5,220.5 Z"/></g>
<g><path style="opacity:1" fill="#f9ed63" d="M 119.5,222.5 C 127.141,222.659 134.141,224.826 140.5,229C 136.328,230.364 131.995,231.364 127.5,232C 123.727,233.97 119.894,235.803 116,237.5C 110.319,235.12 109.153,231.286 112.5,226C 114.925,224.787 117.259,223.621 119.5,222.5 Z"/></g>
<g><path style="opacity:1" fill="#fee808" d="M 150.5,207.5 C 153.999,201.828 158.999,199.661 165.5,201C 167.908,204.043 168.074,207.209 166,210.5C 158.908,215.59 153.241,221.924 149,229.5C 143.872,223.676 143.205,217.343 147,210.5C 148.039,209.29 149.206,208.29 150.5,207.5 Z"/></g>
<g><path style="opacity:1" fill="#fee805" d="M 175.5,207.5 C 179.915,207.305 184.249,207.805 188.5,209C 191.6,210.668 192.1,212.835 190,215.5C 186.547,219.145 182.38,221.645 177.5,223C 168.912,223.51 160.579,224.844 152.5,227C 158.259,218.139 165.925,211.639 175.5,207.5 Z"/></g>
<g><path style="opacity:1" fill="#f9ed62" d="M 176.5,209.5 C 179.607,209.351 182.607,209.851 185.5,211C 186.935,213.267 186.602,215.267 184.5,217C 176.831,220.388 168.831,222.055 160.5,222C 165.033,216.595 170.366,212.429 176.5,209.5 Z"/></g>
<g><path style="opacity:1" fill="#f9ed62" d="M 150.5,207.5 C 153.506,205.33 156.839,203.664 160.5,202.5C 164.707,203.976 165.54,206.642 163,210.5C 159.785,214.891 155.618,217.891 150.5,219.5C 148.391,219.225 147.058,218.058 146.5,216C 147.232,212.802 148.565,209.969 150.5,207.5 Z"/></g>
<g><path style="opacity:1" fill="#f9ed5f" d="M 135.5,234.5 C 136.239,234.369 136.906,234.536 137.5,235C 127.714,242.801 122.214,252.968 121,265.5C 118.523,270.368 115.523,270.701 112,266.5C 110.761,256.717 113.594,248.384 120.5,241.5C 124.552,237.309 129.552,234.976 135.5,234.5 Z"/></g>
<g><path style="opacity:1" fill="#d38558" d="M 203.5,185.5 C 205.833,185.5 208.167,185.5 210.5,185.5C 214.153,186.989 216.653,189.656 218,193.5C 217.575,211.904 216.075,230.237 213.5,248.5C 213.5,249.833 213.5,251.167 213.5,252.5C 213.5,253.833 213.5,255.167 213.5,256.5C 212.527,258.948 212.194,261.615 212.5,264.5C 211.85,264.196 211.183,263.863 210.5,263.5C 208.618,274.602 203.618,283.935 195.5,291.5C 191.334,294.417 187.001,297.084 182.5,299.5C 175.454,302.174 168.121,303.174 160.5,302.5C 157.794,302.425 155.127,302.092 152.5,301.5C 151.609,300.89 150.609,300.557 149.5,300.5C 145.647,298.318 141.814,295.984 138,293.5C 134.135,299.117 129.302,299.951 123.5,296C 120.493,293.834 118.493,291.001 117.5,287.5C 118.519,285.489 119.519,283.489 120.5,281.5C 122.379,282.341 124.379,282.675 126.5,282.5C 127.167,282.5 127.833,282.5 128.5,282.5C 128.842,283.338 129.508,283.672 130.5,283.5C 131.773,284.077 131.773,284.743 130.5,285.5C 128.043,283.775 125.377,283.275 122.5,284C 119.098,285.786 118.598,288.286 121,291.5C 126.793,297.968 132.293,297.968 137.5,291.5C 163.724,308.155 185.891,303.822 204,278.5C 208.071,268.694 208.571,258.694 205.5,248.5C 208.292,248.548 210.125,247.215 211,244.5C 213.262,239.714 212.428,235.547 208.5,232C 206.833,231.333 205.167,231.333 203.5,232C 201.998,234.574 200.998,237.407 200.5,240.5C 199.893,240.376 199.56,240.043 199.5,239.5C 199.5,238.5 199.5,237.5 199.5,236.5C 199.5,235.833 199.5,235.167 199.5,234.5C 200.338,234.158 200.672,233.492 200.5,232.5C 205.868,227.943 210.035,228.943 213,235.5C 214.664,224.189 216.164,212.856 217.5,201.5C 217.629,196.258 215.962,191.758 212.5,188C 202.517,185.296 197.851,189.296 198.5,200C 199.222,210.168 199.889,220.335 200.5,230.5C 199.326,229.486 198.66,228.153 198.5,226.5C 197.639,214.843 197.473,203.176 198,191.5C 198.715,188.359 200.548,186.359 203.5,185.5 Z"/></g>
<g><path style="opacity:1" fill="#f5c999" d="M 204.5,188.5 C 209.133,187.458 212.299,189.125 214,193.5C 214.667,200.833 214.667,208.167 214,215.5C 213.837,217.676 213.004,219.509 211.5,221C 208.833,221.667 206.167,221.667 203.5,221C 202.299,220.097 201.465,218.931 201,217.5C 200.333,209.833 200.333,202.167 201,194.5C 201.424,191.975 202.59,189.975 204.5,188.5 Z"/></g>
<g><path style="opacity:1" fill="#fee808" d="M 135.5,234.5 C 137.288,233.378 139.288,233.211 141.5,234C 130.779,242.606 124.612,253.772 123,267.5C 119.411,274.324 115.077,274.991 110,269.5C 108.27,260.637 109.936,252.304 115,244.5C 116.488,242.84 118.321,241.84 120.5,241.5C 113.594,248.384 110.761,256.717 112,266.5C 115.523,270.701 118.523,270.368 121,265.5C 122.214,252.968 127.714,242.801 137.5,235C 136.906,234.536 136.239,234.369 135.5,234.5 Z"/></g>
<g><path style="opacity:1" fill="#dddada" d="M 293.5,235.5 C 298.308,235.731 301.974,237.731 304.5,241.5C 303.99,243.088 302.99,244.255 301.5,245C 297.653,246.616 293.653,247.616 289.5,248C 292.365,248.183 295.031,248.683 297.5,249.5C 286.491,249.4 275.491,249.066 264.5,248.5C 262.197,246.745 259.53,245.578 256.5,245C 255.426,244.261 254.759,243.261 254.5,242C 255.777,239.019 258.11,237.519 261.5,237.5C 260.943,239.949 260.943,242.282 261.5,244.5C 266.62,241.605 271.953,239.272 277.5,237.5C 283.322,239.582 288.989,241.915 294.5,244.5C 294.037,241.518 293.704,238.518 293.5,235.5 Z"/></g>
<g><path style="opacity:1" fill="#efc991" d="M 321.5,362.5 C 320.778,362.082 320.278,361.416 320,360.5C 319.5,323.168 319.333,285.835 319.5,248.5C 317.323,248.586 315.323,249.253 313.5,250.5C 312.668,258.813 312.168,267.147 312,275.5C 311.817,272.635 311.317,269.969 310.5,267.5C 310.5,264.167 310.5,260.833 310.5,257.5C 310.5,256.167 310.5,254.833 310.5,253.5C 278.151,253.781 245.818,253.448 213.5,252.5C 213.5,251.167 213.5,249.833 213.5,248.5C 230.5,248.5 247.5,248.5 264.5,248.5C 275.491,249.066 286.491,249.4 297.5,249.5C 301.833,249.5 306.167,249.5 310.5,249.5C 311.117,249.389 311.617,249.056 312,248.5C 312.497,246.19 312.663,243.857 312.5,241.5C 315.167,241.5 317.833,241.5 320.5,241.5C 321.459,281.818 321.792,322.152 321.5,362.5 Z"/></g>
<g><path style="opacity:1" fill="#e9b06c" d="M 213.5,252.5 C 245.818,253.448 278.151,253.781 310.5,253.5C 310.5,254.833 310.5,256.167 310.5,257.5C 278.159,257.66 245.826,257.327 213.5,256.5C 213.5,255.167 213.5,253.833 213.5,252.5 Z"/></g>
<g><path style="opacity:1" fill="#f5b884" d="M 199.5,239.5 C 199.56,240.043 199.893,240.376 200.5,240.5C 200.998,237.407 201.998,234.574 203.5,232C 205.167,231.333 206.833,231.333 208.5,232C 212.428,235.547 213.262,239.714 211,244.5C 210.125,247.215 208.292,248.548 205.5,248.5C 208.571,258.694 208.071,268.694 204,278.5C 185.891,303.822 163.724,308.155 137.5,291.5C 132.293,297.968 126.793,297.968 121,291.5C 118.598,288.286 119.098,285.786 122.5,284C 125.377,283.275 128.043,283.775 130.5,285.5C 131.773,284.743 131.773,284.077 130.5,283.5C 122.17,255.662 131.837,236.829 159.5,227C 175.734,222.548 189.067,226.715 199.5,239.5 Z"/></g>
<g><path style="opacity:1" fill="#f4c898" d="M 171.5,227.5 C 181.811,226.406 189.978,230.073 196,238.5C 210.233,260.451 206.733,278.951 185.5,294C 167.299,304.727 151.132,302.227 137,286.5C 130.461,277.885 127.794,268.219 129,257.5C 130.355,252.62 132.855,248.453 136.5,245C 148.156,239.064 159.823,233.231 171.5,227.5 Z"/></g>
<g><path style="opacity:1" fill="#664020" d="M 136.5,249.5 C 137.552,249.351 138.552,249.517 139.5,250C 137.757,251.11 136.424,252.61 135.5,254.5C 134.799,252.808 135.133,251.142 136.5,249.5 Z"/></g>
<g><path style="opacity:1" fill="#502b0f" d="M 173.5,242.5 C 176.084,243.048 177.084,244.715 176.5,247.5C 172.716,247.475 171.716,245.808 173.5,242.5 Z"/></g>
<g><path style="opacity:1" fill="#664021" d="M 160.5,253.5 C 161.161,254.718 161.828,256.051 162.5,257.5C 164.508,255.238 164.841,255.738 163.5,259C 159.537,259.118 158.537,257.284 160.5,253.5 Z"/></g>
<g><path style="opacity:1" fill="#512d10" d="M 143.5,258.5 C 147.161,258.35 148.161,259.85 146.5,263C 145.551,263.617 144.718,263.451 144,262.5C 143.51,261.207 143.343,259.873 143.5,258.5 Z"/></g>
<g><path style="opacity:1" fill="#e9b674" d="M 321.5,362.5 C 321.5,363.833 321.5,365.167 321.5,366.5C 325.278,367.193 325.278,368.36 321.5,370C 317.848,370.499 314.182,370.665 310.5,370.5C 310.5,368.833 310.5,367.167 310.5,365.5C 310.768,363.901 310.434,362.568 309.5,361.5C 310.43,357.6 310.763,353.6 310.5,349.5C 310.5,346.5 310.5,343.5 310.5,340.5C 310.5,336.833 310.5,333.167 310.5,329.5C 309.5,329.5 308.5,329.5 307.5,329.5C 308.209,328.596 309.209,328.263 310.5,328.5C 310.5,325.5 310.5,322.5 310.5,319.5C 310.5,315.833 310.5,312.167 310.5,308.5C 309.5,308.5 308.5,308.5 307.5,308.5C 308.209,307.596 309.209,307.263 310.5,307.5C 310.5,304.833 310.5,302.167 310.5,299.5C 310.5,295.5 310.5,291.5 310.5,287.5C 310.5,284.833 310.5,282.167 310.5,279.5C 309.209,279.737 308.209,279.404 307.5,278.5C 308.5,278.5 309.5,278.5 310.5,278.5C 310.5,274.833 310.5,271.167 310.5,267.5C 311.317,269.969 311.817,272.635 312,275.5C 312.168,267.147 312.668,258.813 313.5,250.5C 315.323,249.253 317.323,248.586 319.5,248.5C 319.333,285.835 319.5,323.168 320,360.5C 320.278,361.416 320.778,362.082 321.5,362.5 Z"/></g>
<g><path style="opacity:1" fill="#f27962" d="M 277.5,271.5 C 275.409,271.318 273.409,271.652 271.5,272.5C 270.749,271.624 270.249,270.624 270,269.5C 268.581,270.46 267.081,271.293 265.5,272C 267.26,272.965 267.594,274.132 266.5,275.5C 264.423,274.012 263.423,272.012 263.5,269.5C 261.516,269.617 259.85,268.95 258.5,267.5C 258.55,268.848 258.217,270.348 257.5,272C 257.167,272.167 256.833,272.333 256.5,272.5C 255.833,271.5 255.167,270.5 254.5,269.5C 252.711,270.877 250.711,271.877 248.5,272.5C 247.719,271.271 247.219,269.938 247,268.5C 245.255,269.956 243.422,271.289 241.5,272.5C 240.833,271.167 240.167,269.833 239.5,268.5C 238.199,269.478 237.032,269.145 236,267.5C 235.5,267.667 235,267.833 234.5,268C 235.731,269.183 235.731,270.349 234.5,271.5C 233.824,270.398 233.158,269.398 232.5,268.5C 233.134,267.053 234.301,266.387 236,266.5C 241.031,266.621 246.031,266.621 251,266.5C 252.711,266.439 254.044,267.106 255,268.5C 255.956,267.106 257.289,266.439 259,266.5C 261.513,267.73 264.013,267.73 266.5,266.5C 268.055,266.722 269.389,267.389 270.5,268.5C 273.857,267.01 276.191,268.01 277.5,271.5 Z"/></g>
<g><path style="opacity:1" fill="#fbe93d" d="M 128.5,282.5 C 127.833,282.5 127.167,282.5 126.5,282.5C 122.516,281.795 120.183,279.295 119.5,275C 121.958,272.589 123.791,269.755 125,266.5C 125.855,271.919 127.022,277.252 128.5,282.5 Z"/></g>
<g><path style="opacity:1" fill="#eb503c" d="M 214.5,266.5 C 216.227,267.434 218.061,267.434 220,266.5C 221.365,266.844 222.532,267.511 223.5,268.5C 226.584,265.92 229.584,265.92 232.5,268.5C 233.158,269.398 233.824,270.398 234.5,271.5C 235.731,270.349 235.731,269.183 234.5,268C 235,267.833 235.5,267.667 236,267.5C 237.032,269.145 238.199,269.478 239.5,268.5C 240.167,269.833 240.833,271.167 241.5,272.5C 243.422,271.289 245.255,269.956 247,268.5C 247.219,269.938 247.719,271.271 248.5,272.5C 250.711,271.877 252.711,270.877 254.5,269.5C 255.167,270.5 255.833,271.5 256.5,272.5C 256.833,272.333 257.167,272.167 257.5,272C 258.217,270.348 258.55,268.848 258.5,267.5C 259.85,268.95 261.516,269.617 263.5,269.5C 263.423,272.012 264.423,274.012 266.5,275.5C 267.594,274.132 267.26,272.965 265.5,272C 267.081,271.293 268.581,270.46 270,269.5C 270.249,270.624 270.749,271.624 271.5,272.5C 273.409,271.652 275.409,271.318 277.5,271.5C 277.908,277.951 275.408,279.618 270,276.5C 267.541,279.1 265.041,279.1 262.5,276.5C 260.024,279.069 257.524,279.069 255,276.5C 251.151,277.021 247.317,277.354 243.5,277.5C 241.945,277.278 240.611,276.611 239.5,275.5C 236.979,278.093 234.479,278.093 232,275.5C 229.333,278.167 226.667,278.167 224,275.5C 221.541,278.1 219.041,278.1 216.5,275.5C 215.15,276.95 213.484,277.617 211.5,277.5C 210.5,276.833 209.5,276.167 208.5,275.5C 210.265,272.291 212.265,269.291 214.5,266.5 Z"/></g>
<g><path style="opacity:1" fill="#d0865a" d="M 186.5,250.5 C 189.39,250.527 190.39,251.693 189.5,254C 193.177,267.303 189.177,277.637 177.5,285C 170.182,288.263 162.849,288.263 155.5,285C 152.6,283.258 149.6,281.758 146.5,280.5C 147.727,279.41 148.56,278.076 149,276.5C 150.418,278.363 152.251,278.863 154.5,278C 169.397,274.728 180.397,266.394 187.5,253C 186.748,252.329 186.414,251.496 186.5,250.5 Z"/></g>
<g><path style="opacity:1" fill="#d8c0b9" d="M 178.5,268.5 C 171.903,277.029 163.236,281.362 152.5,281.5C 151.957,281.44 151.624,281.107 151.5,280.5C 161.429,278.365 170.429,274.365 178.5,268.5 Z"/></g>
<g><path style="opacity:1" fill="#fcf9f7" d="M 152.5,281.5 C 163.236,281.362 171.903,277.029 178.5,268.5C 181.835,264.325 185.002,259.992 188,255.5C 191.724,269.881 186.558,279.715 172.5,285C 165.34,286.352 158.673,285.186 152.5,281.5 Z"/></g>
<g><path style="opacity:1" fill="#ec523b" d="M 310.5,267.5 C 310.5,271.167 310.5,274.833 310.5,278.5C 309.5,278.5 308.5,278.5 307.5,278.5C 306.542,278.047 305.708,277.381 305,276.5C 303.011,270.867 304.844,267.867 310.5,267.5 Z"/></g>
<g><path style="opacity:1" fill="#f7f3f4" d="M 213.5,256.5 C 245.826,257.327 278.159,257.66 310.5,257.5C 310.5,260.833 310.5,264.167 310.5,267.5C 304.844,267.867 303.011,270.867 305,276.5C 305.708,277.381 306.542,278.047 307.5,278.5C 308.209,279.404 309.209,279.737 310.5,279.5C 310.5,282.167 310.5,284.833 310.5,287.5C 308.278,287.178 306.444,287.845 305,289.5C 300.226,286.413 297.392,287.746 296.5,293.5C 297.433,299.308 300.267,300.641 305,297.5C 306.444,299.155 308.278,299.822 310.5,299.5C 310.5,302.167 310.5,304.833 310.5,307.5C 309.209,307.263 308.209,307.596 307.5,308.5C 306.295,310.138 304.962,310.471 303.5,309.5C 301.678,306.962 299.678,306.962 297.5,309.5C 294.36,306.623 291.693,306.957 289.5,310.5C 289.02,313.685 289.686,316.519 291.5,319C 293.809,319.756 295.809,319.256 297.5,317.5C 300.041,320.1 302.541,320.1 305,317.5C 306.444,319.155 308.278,319.822 310.5,319.5C 310.5,322.5 310.5,325.5 310.5,328.5C 309.209,328.263 308.209,328.596 307.5,329.5C 305.308,330.369 303.141,330.035 301,328.5C 299.715,328.95 298.548,329.617 297.5,330.5C 294.959,327.9 292.459,327.9 290,330.5C 287.413,327.966 284.747,327.966 282,330.5C 280.448,335.125 281.781,338.458 286,340.5C 287.285,340.05 288.452,339.383 289.5,338.5C 292.167,341.167 294.833,341.167 297.5,338.5C 299.956,341.08 302.456,341.08 305,338.5C 306.444,340.155 308.278,340.822 310.5,340.5C 310.5,343.5 310.5,346.5 310.5,349.5C 308.142,349.253 306.142,349.919 304.5,351.5C 302.121,348.86 299.621,348.86 297,351.5C 296.044,350.106 294.711,349.439 293,349.5C 288.031,349.621 283.031,349.621 278,349.5C 274.918,349.748 273.418,351.415 273.5,354.5C 273.5,354.833 273.5,355.167 273.5,355.5C 264.833,355.5 256.167,355.5 247.5,355.5C 247.5,354.5 247.5,353.5 247.5,352.5C 246.235,348.19 243.902,347.523 240.5,350.5C 237.747,348.006 235.08,348.006 232.5,350.5C 229.959,347.9 227.459,347.9 225,350.5C 222.891,348.582 220.725,348.249 218.5,349.5C 218.167,349.5 217.833,349.5 217.5,349.5C 217.706,345.102 217.373,340.768 216.5,336.5C 218.848,339.846 221.514,340.179 224.5,337.5C 227.167,340.167 229.833,340.167 232.5,337.5C 234.956,340.08 237.456,340.08 240,337.5C 242.459,340.1 244.959,340.1 247.5,337.5C 252.515,340.911 255.182,339.578 255.5,333.5C 255.182,327.422 252.515,326.089 247.5,329.5C 245.167,326.833 242.833,326.833 240.5,329.5C 237.747,327.006 235.08,327.006 232.5,329.5C 229.959,326.9 227.459,326.9 225,329.5C 222.253,326.966 219.587,326.966 217,329.5C 216.617,328.944 216.117,328.611 215.5,328.5C 215.69,324.968 215.023,321.635 213.5,318.5C 214.482,317.859 215.482,317.193 216.5,316.5C 219.167,319.167 221.833,319.167 224.5,316.5C 226.956,319.08 229.456,319.08 232,316.5C 234.459,319.1 236.959,319.1 239.5,316.5C 242.201,319.152 244.868,319.152 247.5,316.5C 249.879,319.14 252.379,319.14 255,316.5C 256.808,318.396 258.975,318.896 261.5,318C 262.833,314.667 262.833,311.333 261.5,308C 258.975,307.104 256.808,307.604 255,309.5C 254.044,308.106 252.711,307.439 251,307.5C 247.37,307.591 243.703,307.924 240,308.5C 237.476,305.931 234.976,305.931 232.5,308.5C 229.747,306.006 227.08,306.006 224.5,308.5C 222.002,305.932 219.669,305.932 217.5,308.5C 216.609,307.89 215.609,307.557 214.5,307.5C 213.791,306.596 212.791,306.263 211.5,306.5C 211.5,303.5 211.5,300.5 211.5,297.5C 215.801,297.263 220.134,296.929 224.5,296.5C 226.833,299.167 229.167,299.167 231.5,296.5C 234.167,299.167 236.833,299.167 239.5,296.5C 242.041,299.1 244.541,299.1 247,296.5C 249.667,299.167 252.333,299.167 255,296.5C 255.804,297.804 256.971,298.471 258.5,298.5C 260.987,297.27 263.487,297.27 266,298.5C 269.553,298.107 271.053,296.107 270.5,292.5C 269.984,286.909 267.318,285.575 262.5,288.5C 260.044,285.92 257.544,285.92 255,288.5C 252.456,285.92 249.956,285.92 247.5,288.5C 244.959,285.9 242.459,285.9 240,288.5C 237.333,285.833 234.667,285.833 232,288.5C 231.044,287.106 229.711,286.439 228,286.5C 225.487,287.73 222.987,287.73 220.5,286.5C 218.971,286.529 217.804,287.196 217,288.5C 215.556,286.845 213.722,286.178 211.5,286.5C 211.5,283.5 211.5,280.5 211.5,277.5C 213.484,277.617 215.15,276.95 216.5,275.5C 219.041,278.1 221.541,278.1 224,275.5C 226.667,278.167 229.333,278.167 232,275.5C 234.479,278.093 236.979,278.093 239.5,275.5C 240.611,276.611 241.945,277.278 243.5,277.5C 247.317,277.354 251.151,277.021 255,276.5C 257.524,279.069 260.024,279.069 262.5,276.5C 265.041,279.1 267.541,279.1 270,276.5C 275.408,279.618 277.908,277.951 277.5,271.5C 276.191,268.01 273.857,267.01 270.5,268.5C 269.389,267.389 268.055,266.722 266.5,266.5C 264.013,267.73 261.513,267.73 259,266.5C 257.289,266.439 255.956,267.106 255,268.5C 254.044,267.106 252.711,266.439 251,266.5C 246.031,266.621 241.031,266.621 236,266.5C 234.301,266.387 233.134,267.053 232.5,268.5C 229.584,265.92 226.584,265.92 223.5,268.5C 222.532,267.511 221.365,266.844 220,266.5C 218.061,267.434 216.227,267.434 214.5,266.5C 214.167,265.5 213.5,264.833 212.5,264.5C 212.194,261.615 212.527,258.948 213.5,256.5 Z"/></g>
<g><path style="opacity:1" fill="#e7b791" d="M 208.5,275.5 C 209.5,276.167 210.5,276.833 211.5,277.5C 211.5,280.5 211.5,283.5 211.5,286.5C 209.124,287.512 208.124,289.345 208.5,292C 208.124,294.655 209.124,296.488 211.5,297.5C 211.5,300.5 211.5,303.5 211.5,306.5C 212.791,306.263 213.791,306.596 214.5,307.5C 212.585,307.216 210.919,307.549 209.5,308.5C 203.547,297.678 203.214,286.678 208.5,275.5 Z"/></g>
<g><path style="opacity:1" fill="#f96a97" d="M 195.5,291.5 C 196.584,296.055 197.751,300.722 199,305.5C 201.735,311.138 204.568,316.638 207.5,322C 207.417,326.749 205.084,329.749 200.5,331C 192.723,334.822 185.39,334.155 178.5,329C 169.753,322.672 165.42,314.172 165.5,303.5C 167.177,306.092 168.343,309.092 169,312.5C 173.912,317.487 179.246,317.821 185,313.5C 187.582,308.12 186.749,303.453 182.5,299.5C 187.001,297.084 191.334,294.417 195.5,291.5 Z"/></g>
<g><path style="opacity:1" fill="#5ab6eb" d="M 211.5,286.5 C 213.722,286.178 215.556,286.845 217,288.5C 217.804,287.196 218.971,286.529 220.5,286.5C 222.987,287.73 225.487,287.73 228,286.5C 229.711,286.439 231.044,287.106 232,288.5C 234.667,285.833 237.333,285.833 240,288.5C 242.459,285.9 244.959,285.9 247.5,288.5C 249.956,285.92 252.456,285.92 255,288.5C 257.544,285.92 260.044,285.92 262.5,288.5C 267.318,285.575 269.984,286.909 270.5,292.5C 271.053,296.107 269.553,298.107 266,298.5C 263.487,297.27 260.987,297.27 258.5,298.5C 256.971,298.471 255.804,297.804 255,296.5C 252.333,299.167 249.667,299.167 247,296.5C 244.541,299.1 242.041,299.1 239.5,296.5C 236.833,299.167 234.167,299.167 231.5,296.5C 229.167,299.167 226.833,299.167 224.5,296.5C 220.134,296.929 215.801,297.263 211.5,297.5C 209.124,296.488 208.124,294.655 208.5,292C 208.124,289.345 209.124,287.512 211.5,286.5 Z"/></g>
<g><path style="opacity:1" fill="#5ab1e7" d="M 310.5,287.5 C 310.5,291.5 310.5,295.5 310.5,299.5C 308.278,299.822 306.444,299.155 305,297.5C 300.267,300.641 297.433,299.308 296.5,293.5C 297.392,287.746 300.226,286.413 305,289.5C 306.444,287.845 308.278,287.178 310.5,287.5 Z"/></g>
<g><path style="opacity:1" fill="#f783a6" d="M 182.5,299.5 C 186.749,303.453 187.582,308.12 185,313.5C 179.246,317.821 173.912,317.487 169,312.5C 168.343,309.092 167.177,306.092 165.5,303.5C 163.585,303.784 161.919,303.451 160.5,302.5C 168.121,303.174 175.454,302.174 182.5,299.5 Z"/></g>
<g><path style="opacity:1" fill="#f44e82" d="M 212.5,264.5 C 213.5,264.833 214.167,265.5 214.5,266.5C 212.265,269.291 210.265,272.291 208.5,275.5C 203.214,286.678 203.547,297.678 209.5,308.5C 209.517,310.565 209.85,312.565 210.5,314.5C 210.99,318.479 212.324,322.146 214.5,325.5C 214.124,327.383 213.124,328.883 211.5,330C 199.826,334.254 187.826,336.588 175.5,337C 172.168,329.01 168.002,321.51 163,314.5C 161.412,311.691 159.245,311.025 156.5,312.5C 155.438,308.714 154.105,305.048 152.5,301.5C 155.127,302.092 157.794,302.425 160.5,302.5C 161.919,303.451 163.585,303.784 165.5,303.5C 165.42,314.172 169.753,322.672 178.5,329C 185.39,334.155 192.723,334.822 200.5,331C 205.084,329.749 207.417,326.749 207.5,322C 204.568,316.638 201.735,311.138 199,305.5C 197.751,300.722 196.584,296.055 195.5,291.5C 203.618,283.935 208.618,274.602 210.5,263.5C 211.183,263.863 211.85,264.196 212.5,264.5 Z"/></g>
<g><path style="opacity:1" fill="#f5c594" d="M 150.5,303.5 C 153.055,306.627 154.055,310.294 153.5,314.5C 144.297,317.622 134.964,320.455 125.5,323C 120.5,323.667 115.5,323.667 110.5,323C 104.664,320.78 103.164,316.947 106,311.5C 108.251,309.623 110.751,308.123 113.5,307C 125.764,305.117 138.097,303.95 150.5,303.5 Z"/></g>
<g><path style="opacity:1" fill="#f2df83" d="M 303.5,309.5 C 302.127,309.343 300.793,309.51 299.5,310C 300.731,311.183 300.731,312.349 299.5,313.5C 298.614,312.675 298.281,311.675 298.5,310.5C 296.516,310.617 294.85,309.95 293.5,308.5C 292.692,308.808 292.025,309.308 291.5,310C 292.731,311.183 292.731,312.349 291.5,313.5C 290.824,312.398 290.158,311.398 289.5,310.5C 291.693,306.957 294.36,306.623 297.5,309.5C 299.678,306.962 301.678,306.962 303.5,309.5 Z"/></g>
<g><path style="opacity:1" fill="#edcd2c" d="M 214.5,307.5 C 215.609,307.557 216.609,307.89 217.5,308.5C 218.239,308.369 218.906,308.536 219.5,309C 218.483,310.049 218.316,311.216 219,312.5C 220.753,311.373 222.587,310.373 224.5,309.5C 226.565,313.407 228.065,313.074 229,308.5C 230.011,309.337 231.178,309.67 232.5,309.5C 232.5,310.5 232.5,311.5 232.5,312.5C 234.873,311.706 237.206,310.706 239.5,309.5C 240.996,313.277 242.663,313.277 244.5,309.5C 245.5,310.833 246.5,310.833 247.5,309.5C 248.395,311.246 249.062,313.08 249.5,315C 249.164,316.03 248.497,316.53 247.5,316.5C 244.868,319.152 242.201,319.152 239.5,316.5C 236.959,319.1 234.459,319.1 232,316.5C 229.456,319.08 226.956,319.08 224.5,316.5C 221.833,319.167 219.167,319.167 216.5,316.5C 215.482,317.193 214.482,317.859 213.5,318.5C 212.5,317.167 211.5,315.833 210.5,314.5C 209.85,312.565 209.517,310.565 209.5,308.5C 210.919,307.549 212.585,307.216 214.5,307.5 Z"/></g>
<g><path style="opacity:1" fill="#eed34d" d="M 247.5,316.5 C 248.497,316.53 249.164,316.03 249.5,315C 249.062,313.08 248.395,311.246 247.5,309.5C 246.5,310.833 245.5,310.833 244.5,309.5C 242.663,313.277 240.996,313.277 239.5,309.5C 237.206,310.706 234.873,311.706 232.5,312.5C 232.5,311.5 232.5,310.5 232.5,309.5C 231.178,309.67 230.011,309.337 229,308.5C 228.065,313.074 226.565,313.407 224.5,309.5C 222.587,310.373 220.753,311.373 219,312.5C 218.316,311.216 218.483,310.049 219.5,309C 218.906,308.536 218.239,308.369 217.5,308.5C 219.669,305.932 222.002,305.932 224.5,308.5C 227.08,306.006 229.747,306.006 232.5,308.5C 234.976,305.931 237.476,305.931 240,308.5C 243.703,307.924 247.37,307.591 251,307.5C 252.711,307.439 254.044,308.106 255,309.5C 256.808,307.604 258.975,307.104 261.5,308C 262.833,311.333 262.833,314.667 261.5,318C 258.975,318.896 256.808,318.396 255,316.5C 252.379,319.14 249.879,319.14 247.5,316.5 Z"/></g>
<g><path style="opacity:1" fill="#edcb31" d="M 303.5,309.5 C 304.962,310.471 306.295,310.138 307.5,308.5C 308.5,308.5 309.5,308.5 310.5,308.5C 310.5,312.167 310.5,315.833 310.5,319.5C 308.278,319.822 306.444,319.155 305,317.5C 302.541,320.1 300.041,320.1 297.5,317.5C 295.809,319.256 293.809,319.756 291.5,319C 289.686,316.519 289.02,313.685 289.5,310.5C 290.158,311.398 290.824,312.398 291.5,313.5C 292.731,312.349 292.731,311.183 291.5,310C 292.025,309.308 292.692,308.808 293.5,308.5C 294.85,309.95 296.516,310.617 298.5,310.5C 298.281,311.675 298.614,312.675 299.5,313.5C 300.731,312.349 300.731,311.183 299.5,310C 300.793,309.51 302.127,309.343 303.5,309.5 Z"/></g>
<g><path style="opacity:1" fill="#d38a60" d="M 149.5,301.5 C 149.833,302.167 150.167,302.833 150.5,303.5C 138.097,303.95 125.764,305.117 113.5,307C 110.751,308.123 108.251,309.623 106,311.5C 103.164,316.947 104.664,320.78 110.5,323C 115.5,323.667 120.5,323.667 125.5,323C 134.964,320.455 144.297,317.622 153.5,314.5C 153.5,314.833 153.5,315.167 153.5,315.5C 141.887,320.758 129.72,324.092 117,325.5C 106.864,325.973 102.53,321.307 104,311.5C 108.162,307.003 113.328,304.503 119.5,304C 129.511,303.192 139.511,302.358 149.5,301.5 Z"/></g>
<g><path style="opacity:1" fill="#c597f4" d="M 209.5,332.5 C 214.508,337.016 214.508,341.516 209.5,346C 202.519,346.174 199.519,342.674 200.5,335.5C 203.285,333.905 206.285,332.905 209.5,332.5 Z"/></g>
<g><path style="opacity:1" fill="#c63d69" d="M 149.5,300.5 C 150.609,300.557 151.609,300.89 152.5,301.5C 154.105,305.048 155.438,308.714 156.5,312.5C 159.245,311.025 161.412,311.691 163,314.5C 168.002,321.51 172.168,329.01 175.5,337C 187.826,336.588 199.826,334.254 211.5,330C 213.124,328.883 214.124,327.383 214.5,325.5C 212.324,322.146 210.99,318.479 210.5,314.5C 211.5,315.833 212.5,317.167 213.5,318.5C 215.023,321.635 215.69,324.968 215.5,328.5C 214.5,328.833 213.833,329.5 213.5,330.5C 212.005,330.989 210.671,331.655 209.5,332.5C 206.285,332.905 203.285,333.905 200.5,335.5C 192.664,336.604 184.998,337.937 177.5,339.5C 175.983,339.489 174.816,338.823 174,337.5C 170.467,328.401 165.467,320.401 159,313.5C 157.2,314.32 155.366,314.986 153.5,315.5C 153.5,315.167 153.5,314.833 153.5,314.5C 154.055,310.294 153.055,306.627 150.5,303.5C 150.167,302.833 149.833,302.167 149.5,301.5C 149.5,301.167 149.5,300.833 149.5,300.5 Z"/></g>
<g><path style="opacity:1" fill="#a66edf" d="M 213.5,330.5 C 214.302,331.952 214.802,333.618 215,335.5C 215.5,341.825 215.666,348.158 215.5,354.5C 210.793,354.674 206.293,355.674 202,357.5C 200.69,350.575 196.857,348.742 190.5,352C 188.76,354.035 186.926,355.869 185,357.5C 180.873,356.761 176.706,356.261 172.5,356C 175.926,350.748 177.593,345.248 177.5,339.5C 184.998,337.937 192.664,336.604 200.5,335.5C 199.519,342.674 202.519,346.174 209.5,346C 214.508,341.516 214.508,337.016 209.5,332.5C 210.671,331.655 212.005,330.989 213.5,330.5 Z"/></g>
<g><path style="opacity:1" fill="#8fd043" d="M 216.5,336.5 C 216.167,333.833 215.833,331.167 215.5,328.5C 216.117,328.611 216.617,328.944 217,329.5C 219.587,326.966 222.253,326.966 225,329.5C 227.459,326.9 229.959,326.9 232.5,329.5C 235.08,327.006 237.747,327.006 240.5,329.5C 242.833,326.833 245.167,326.833 247.5,329.5C 252.515,326.089 255.182,327.422 255.5,333.5C 255.182,339.578 252.515,340.911 247.5,337.5C 244.959,340.1 242.459,340.1 240,337.5C 237.456,340.08 234.956,340.08 232.5,337.5C 229.833,340.167 227.167,340.167 224.5,337.5C 221.514,340.179 218.848,339.846 216.5,336.5 Z"/></g>
<g><path style="opacity:1" fill="#8bce3f" d="M 307.5,329.5 C 308.5,329.5 309.5,329.5 310.5,329.5C 310.5,333.167 310.5,336.833 310.5,340.5C 308.278,340.822 306.444,340.155 305,338.5C 302.456,341.08 299.956,341.08 297.5,338.5C 294.833,341.167 292.167,341.167 289.5,338.5C 288.452,339.383 287.285,340.05 286,340.5C 281.781,338.458 280.448,335.125 282,330.5C 284.747,327.966 287.413,327.966 290,330.5C 292.459,327.9 294.959,327.9 297.5,330.5C 298.548,329.617 299.715,328.95 301,328.5C 303.141,330.035 305.308,330.369 307.5,329.5 Z"/></g>
<g><path style="opacity:1" fill="#ef6a51" d="M 218.5,349.5 C 220.725,348.249 222.891,348.582 225,350.5C 227.459,347.9 229.959,347.9 232.5,350.5C 235.08,348.006 237.747,348.006 240.5,350.5C 243.902,347.523 246.235,348.19 247.5,352.5C 246.5,352.5 245.5,352.5 244.5,352.5C 244.719,353.675 244.386,354.675 243.5,355.5C 242.148,354.482 241.148,353.149 240.5,351.5C 238.227,352.375 237.227,354.042 237.5,356.5C 236.325,356.719 235.325,356.386 234.5,355.5C 232.951,350.287 231.617,350.287 230.5,355.5C 227.509,355.67 225.509,354.337 224.5,351.5C 222.833,352.167 221.167,352.833 219.5,353.5C 218.429,351.675 219.096,350.508 221.5,350C 220.552,349.517 219.552,349.351 218.5,349.5 Z"/></g>
<g><path style="opacity:1" fill="#ef6f58" d="M 304.5,351.5 C 302.774,351.185 301.107,351.019 299.5,351C 300.337,352.011 300.67,353.178 300.5,354.5C 298.5,353.833 296.5,353.167 294.5,352.5C 294.5,353.833 294.5,355.167 294.5,356.5C 291.09,356.616 289.756,354.95 290.5,351.5C 288.738,351.643 287.071,351.309 285.5,350.5C 284.833,351.833 284.167,353.167 283.5,354.5C 282.614,353.675 282.281,352.675 282.5,351.5C 280.488,350.986 278.488,350.82 276.5,351C 277.694,353.658 276.694,354.824 273.5,354.5C 273.418,351.415 274.918,349.748 278,349.5C 283.031,349.621 288.031,349.621 293,349.5C 294.711,349.439 296.044,350.106 297,351.5C 299.621,348.86 302.121,348.86 304.5,351.5 Z"/></g>
<g><path style="opacity:1" fill="#70409c" d="M 215.5,328.5 C 215.833,331.167 216.167,333.833 216.5,336.5C 217.373,340.768 217.706,345.102 217.5,349.5C 217.483,351.565 217.15,353.565 216.5,355.5C 214.901,355.232 213.568,355.566 212.5,356.5C 209.012,356.54 205.679,357.207 202.5,358.5C 201.833,358.5 201.167,358.5 200.5,358.5C 200.245,356.033 199.245,354.033 197.5,352.5C 195.565,351.291 193.565,351.458 191.5,353C 189.45,354.965 187.783,357.132 186.5,359.5C 185.833,359.5 185.167,359.5 184.5,359.5C 183.432,358.566 182.099,358.232 180.5,358.5C 177.375,357.521 174.042,357.187 170.5,357.5C 173.388,351.723 175.721,345.723 177.5,339.5C 177.593,345.248 175.926,350.748 172.5,356C 176.706,356.261 180.873,356.761 185,357.5C 186.926,355.869 188.76,354.035 190.5,352C 196.857,348.742 200.69,350.575 202,357.5C 206.293,355.674 210.793,354.674 215.5,354.5C 215.666,348.158 215.5,341.825 215,335.5C 214.802,333.618 214.302,331.952 213.5,330.5C 213.833,329.5 214.5,328.833 215.5,328.5 Z"/></g>
<g><path style="opacity:1" fill="#d8a27f" d="M 247.5,355.5 C 256.167,355.5 264.833,355.5 273.5,355.5C 273.5,356.167 273.5,356.833 273.5,357.5C 264.833,357.5 256.167,357.5 247.5,357.5C 247.5,356.833 247.5,356.167 247.5,355.5 Z"/></g>
<g><path style="opacity:1" fill="#ec3818" d="M 217.5,349.5 C 217.833,349.5 218.167,349.5 218.5,349.5C 219.552,349.351 220.552,349.517 221.5,350C 219.096,350.508 218.429,351.675 219.5,353.5C 221.167,352.833 222.833,352.167 224.5,351.5C 225.509,354.337 227.509,355.67 230.5,355.5C 231.617,350.287 232.951,350.287 234.5,355.5C 235.325,356.386 236.325,356.719 237.5,356.5C 237.227,354.042 238.227,352.375 240.5,351.5C 241.148,353.149 242.148,354.482 243.5,355.5C 244.386,354.675 244.719,353.675 244.5,352.5C 245.5,352.5 246.5,352.5 247.5,352.5C 247.5,353.5 247.5,354.5 247.5,355.5C 247.5,356.167 247.5,356.833 247.5,357.5C 245.521,360.947 243.021,361.28 240,358.5C 237.456,361.08 234.956,361.08 232.5,358.5C 231.167,359.167 229.833,359.833 228.5,360.5C 227.167,359.833 225.833,359.167 224.5,358.5C 222.087,361.124 219.753,361.124 217.5,358.5C 216.89,357.609 216.557,356.609 216.5,355.5C 217.15,353.565 217.483,351.565 217.5,349.5 Z"/></g>
<g><path style="opacity:1" fill="#fbf3f3" d="M 247.5,357.5 C 256.167,357.5 264.833,357.5 273.5,357.5C 274.291,359.443 275.791,360.443 278,360.5C 286.805,360.352 295.638,360.019 304.5,359.5C 306.075,360.456 307.742,361.123 309.5,361.5C 310.434,362.568 310.768,363.901 310.5,365.5C 278.984,365.82 247.651,365.154 216.5,363.5C 216.216,361.585 216.549,359.919 217.5,358.5C 219.753,361.124 222.087,361.124 224.5,358.5C 225.833,359.167 227.167,359.833 228.5,360.5C 229.833,359.833 231.167,359.167 232.5,358.5C 234.956,361.08 237.456,361.08 240,358.5C 243.021,361.28 245.521,360.947 247.5,357.5 Z"/></g>
<g><path style="opacity:1" fill="#eb391c" d="M 310.5,349.5 C 310.763,353.6 310.43,357.6 309.5,361.5C 307.742,361.123 306.075,360.456 304.5,359.5C 295.638,360.019 286.805,360.352 278,360.5C 275.791,360.443 274.291,359.443 273.5,357.5C 273.5,356.833 273.5,356.167 273.5,355.5C 273.5,355.167 273.5,354.833 273.5,354.5C 276.694,354.824 277.694,353.658 276.5,351C 278.488,350.82 280.488,350.986 282.5,351.5C 282.281,352.675 282.614,353.675 283.5,354.5C 284.167,353.167 284.833,351.833 285.5,350.5C 287.071,351.309 288.738,351.643 290.5,351.5C 289.756,354.95 291.09,356.616 294.5,356.5C 294.5,355.167 294.5,353.833 294.5,352.5C 296.5,353.167 298.5,353.833 300.5,354.5C 300.67,353.178 300.337,352.011 299.5,351C 301.107,351.019 302.774,351.185 304.5,351.5C 306.142,349.919 308.142,349.253 310.5,349.5 Z"/></g>
<g><path style="opacity:1" fill="#f5c392" d="M 212.5,356.5 C 214.93,368.507 213.764,380.507 209,392.5C 207.321,395.699 205.321,396.033 203,393.5C 202.5,381.838 202.333,370.171 202.5,358.5C 205.679,357.207 209.012,356.54 212.5,356.5 Z"/></g>
<g><path style="opacity:1" fill="#ebaf64" d="M 197.5,352.5 C 199.245,354.033 200.245,356.033 200.5,358.5C 201.414,361.728 201.747,365.061 201.5,368.5C 199.833,368.5 198.167,368.5 196.5,368.5C 196.5,367.167 196.5,365.833 196.5,364.5C 196.183,360.298 196.517,356.298 197.5,352.5 Z"/></g>
<g><path style="opacity:1" fill="#f2d0ac" d="M 216.5,363.5 C 247.651,365.154 278.984,365.82 310.5,365.5C 310.5,367.167 310.5,368.833 310.5,370.5C 278.825,371.487 247.158,370.82 215.5,368.5C 215.216,366.585 215.549,364.919 216.5,363.5 Z"/></g>
<g><path style="opacity:1" fill="#f5c08f" d="M 180.5,358.5 C 182.099,358.232 183.432,358.566 184.5,359.5C 179.819,367.528 175.653,375.861 172,384.5C 169.759,387.227 167.093,387.894 164,386.5C 163.833,385.667 163.667,384.833 163.5,384C 166.071,375.453 168.738,366.953 171.5,358.5C 174.5,358.5 177.5,358.5 180.5,358.5 Z"/></g>
<g><path style="opacity:1" fill="#f2d09f" d="M 196.5,364.5 C 196.5,365.833 196.5,367.167 196.5,368.5C 198.167,368.5 199.833,368.5 201.5,368.5C 201.5,369.5 201.5,370.5 201.5,371.5C 196.453,371.663 191.453,371.329 186.5,370.5C 189.161,367.498 192.495,365.498 196.5,364.5 Z"/></g>
<g><path style="opacity:1" fill="#eec99a" d="M 328.5,385.5 C 328.5,381.167 328.5,376.833 328.5,372.5C 290.862,373.227 253.195,373.227 215.5,372.5C 215.5,371.167 215.5,369.833 215.5,368.5C 247.158,370.82 278.825,371.487 310.5,370.5C 314.182,370.665 317.848,370.499 321.5,370C 325.278,368.36 325.278,367.193 321.5,366.5C 321.5,365.167 321.5,363.833 321.5,362.5C 321.792,322.152 321.459,281.818 320.5,241.5C 317.833,241.5 315.167,241.5 312.5,241.5C 312.663,243.857 312.497,246.19 312,248.5C 311.617,249.056 311.117,249.389 310.5,249.5C 309.585,239.585 313.918,236.085 323.5,239C 324.126,239.75 324.626,240.584 325,241.5C 325.5,283.165 325.667,324.832 325.5,366.5C 328.777,366.216 331.943,366.549 335,367.5C 335.667,372.167 335.667,376.833 335,381.5C 332.948,383.058 330.781,384.392 328.5,385.5 Z"/></g>
<g><path style="opacity:1" fill="#e8b672" d="M 215.5,372.5 C 253.195,373.227 290.862,373.227 328.5,372.5C 328.5,376.833 328.5,381.167 328.5,385.5C 290.206,386.363 251.873,386.363 213.5,385.5C 213.982,381.127 214.648,376.794 215.5,372.5 Z"/></g>
<g><path style="opacity:1" fill="#e7b167" d="M 186.5,370.5 C 191.453,371.329 196.453,371.663 201.5,371.5C 200.564,375.735 200.231,380.069 200.5,384.5C 196.154,384.666 191.821,384.499 187.5,384C 186.533,379.599 186.2,375.099 186.5,370.5 Z"/></g>
<g><path style="opacity:1" fill="#cf8459" d="M 170.5,357.5 C 174.042,357.187 177.375,357.521 180.5,358.5C 177.5,358.5 174.5,358.5 171.5,358.5C 168.738,366.953 166.071,375.453 163.5,384C 163.667,384.833 163.833,385.667 164,386.5C 167.093,387.894 169.759,387.227 172,384.5C 175.653,375.861 179.819,367.528 184.5,359.5C 185.167,359.5 185.833,359.5 186.5,359.5C 181.743,368.014 177.243,376.681 173,385.5C 164.749,392.038 161.416,390.038 163,379.5C 165.405,372.117 167.905,364.784 170.5,357.5 Z"/></g>
<g><path style="opacity:1" fill="#ce8053" d="M 212.5,356.5 C 213.568,355.566 214.901,355.232 216.5,355.5C 216.557,356.609 216.89,357.609 217.5,358.5C 216.549,359.919 216.216,361.585 216.5,363.5C 215.549,364.919 215.216,366.585 215.5,368.5C 215.5,369.833 215.5,371.167 215.5,372.5C 214.648,376.794 213.982,381.127 213.5,385.5C 212.793,388.643 211.627,391.643 210,394.5C 206.195,397.539 203.195,396.872 201,392.5C 200.503,389.854 200.336,387.187 200.5,384.5C 200.231,380.069 200.564,375.735 201.5,371.5C 201.5,370.5 201.5,369.5 201.5,368.5C 201.747,365.061 201.414,361.728 200.5,358.5C 201.167,358.5 201.833,358.5 202.5,358.5C 202.333,370.171 202.5,381.838 203,393.5C 205.321,396.033 207.321,395.699 209,392.5C 213.764,380.507 214.93,368.507 212.5,356.5 Z"/></g>
<g><path style="opacity:1" fill="#ec553a" d="M 250.5,403.5 C 258.152,402.817 265.485,403.984 272.5,407C 271.333,408.833 270.167,410.667 269,412.5C 268.065,409.898 266.232,408.398 263.5,408C 247.73,405.101 241.563,411.268 245,426.5C 251.698,433.597 259.198,434.431 267.5,429C 268.701,428.097 269.535,426.931 270,425.5C 271.046,427.09 272.213,428.59 273.5,430C 268.4,433.533 262.734,435.366 256.5,435.5C 243.734,434.901 237.901,428.234 239,415.5C 241.423,410.061 245.257,406.061 250.5,403.5 Z"/></g>
<g><path style="opacity:1" fill="#ec5439" d="M 289.5,403.5 C 300.043,401.722 307.877,405.389 313,414.5C 313.512,431.305 305.345,438.138 288.5,435C 279.581,430.996 276.081,424.163 278,414.5C 280.412,409.252 284.246,405.586 289.5,403.5 Z"/></g>
<g><path style="opacity:1" fill="#ec4f34" d="M 70.5,404.5 C 74.1515,403.835 77.9848,403.501 82,403.5C 86.9165,403.423 91.7498,403.923 96.5,405C 101.743,409.588 101.743,414.255 96.5,419C 101.913,422.42 102.913,426.92 99.5,432.5C 98.0878,433.806 96.4211,434.64 94.5,435C 86.5,435.667 78.5,435.667 70.5,435C 71.8288,424.735 71.8288,414.569 70.5,404.5 Z"/></g>
<g><path style="opacity:1" fill="#ed5539" d="M 108.5,404.5 C 118.319,403.506 128.319,403.173 138.5,403.5C 138.66,405.199 138.494,406.866 138,408.5C 130.253,407.518 122.42,407.185 114.5,407.5C 114.5,410.833 114.5,414.167 114.5,417.5C 120.167,417.5 125.833,417.5 131.5,417.5C 131.5,418.833 131.5,420.167 131.5,421.5C 125.833,421.5 120.167,421.5 114.5,421.5C 114.5,424.833 114.5,428.167 114.5,431.5C 122.5,431.5 130.5,431.5 138.5,431.5C 138.66,433.199 138.494,434.866 138,436.5C 128.583,435.515 119.083,435.182 109.5,435.5C 109.828,424.986 109.494,414.653 108.5,404.5 Z"/></g>
<g><path style="opacity:1" fill="#ec5438" d="M 155.5,403.5 C 158.187,403.336 160.854,403.503 163.5,404C 163.043,404.414 162.709,404.914 162.5,405.5C 167.038,415.409 171.705,425.243 176.5,435C 174.527,435.495 172.527,435.662 170.5,435.5C 170.653,427.491 166.82,424.491 159,426.5C 156.167,426.833 153.333,427.167 150.5,427.5C 148.819,429.992 148.152,432.492 148.5,435C 146.5,435.667 144.5,435.667 142.5,435C 148.078,425.011 152.411,414.511 155.5,403.5 Z"/></g>
<g><path style="opacity:1" fill="#ec563b" d="M 181.5,404.5 C 189.323,403.344 197.323,403.177 205.5,404C 217.111,410.081 219.611,418.914 213,430.5C 211.048,432.894 208.548,434.394 205.5,435C 197.5,435.667 189.5,435.667 181.5,435C 182.829,424.735 182.829,414.569 181.5,404.5 Z"/></g>
<g><path style="opacity:1" fill="#ec5338" d="M 320.5,404.5 C 322.288,403.378 324.288,403.211 326.5,404C 325.849,407.918 325.516,411.918 325.5,416C 323.169,429.683 328.836,435.017 342.5,432C 344.286,431.215 345.786,430.049 347,428.5C 347.815,420.254 347.648,412.088 346.5,404C 348.473,403.505 350.473,403.338 352.5,403.5C 352.666,411.507 352.5,419.507 352,427.5C 348.724,433.944 343.39,436.61 336,435.5C 330.586,436.527 326.253,434.861 323,430.5C 321.922,421.731 321.089,413.064 320.5,404.5 Z"/></g>
<g><path style="opacity:1" fill="#ec4f34" d="M 362.5,434.5 C 363.494,424.681 363.827,414.681 363.5,404.5C 365.621,404.325 367.621,404.659 369.5,405.5C 375.992,413.136 382.492,420.802 389,428.5C 389.815,420.254 389.648,412.088 388.5,404C 390.5,403.333 392.5,403.333 394.5,404C 393.167,414.333 393.167,424.667 394.5,435C 392.167,435.667 389.833,435.667 387.5,435C 387.833,434.667 388.167,434.333 388.5,434C 381.706,425.537 374.539,417.37 367,409.5C 366.184,418.079 366.351,426.579 367.5,435C 364.979,435.8 363.312,435.633 362.5,434.5 Z"/></g>
<g><path style="opacity:1" fill="#ec4e33" d="M 430.5,402.5 C 431.622,404.288 431.789,406.288 431,408.5C 426.599,407.533 422.099,407.2 417.5,407.5C 417.182,416.751 417.515,425.917 418.5,435C 416.5,435.667 414.5,435.667 412.5,435C 413.485,425.917 413.818,416.751 413.5,407.5C 409.167,407.5 404.833,407.5 400.5,407.5C 400.5,406.167 400.5,404.833 400.5,403.5C 410.681,403.827 420.681,403.494 430.5,402.5 Z"/></g>
<g><path style="opacity:1" fill="#ed7966" d="M 369.5,405.5 C 367.621,404.659 365.621,404.325 363.5,404.5C 363.827,414.681 363.494,424.681 362.5,434.5C 362.819,424.251 362.486,414.084 361.5,404C 362.833,403.833 364.167,403.667 365.5,403.5C 367.333,403.585 368.666,404.252 369.5,405.5 Z"/></g>
<g><path style="opacity:1" fill="#f7f0f1" d="M 75.5,407.5 C 81.5092,407.334 87.5092,407.501 93.5,408C 97.5048,411.36 97.1715,414.36 92.5,417C 86.8431,417.499 81.1764,417.666 75.5,417.5C 75.5,414.167 75.5,410.833 75.5,407.5 Z"/></g>
<g><path style="opacity:1" fill="#f9f6f8" d="M 187.5,407.5 C 193.925,407.13 200.258,407.63 206.5,409C 210.345,411.195 212.012,414.528 211.5,419C 211.852,423.294 210.518,426.96 207.5,430C 200.924,431.377 194.257,431.877 187.5,431.5C 187.5,423.5 187.5,415.5 187.5,407.5 Z"/></g>
<g><path style="opacity:1" fill="#f9f4f5" d="M 289.5,407.5 C 296.956,405.943 303.123,407.943 308,413.5C 310.902,424.68 306.569,431.013 295,432.5C 284.635,430.794 280.635,424.794 283,414.5C 284.694,411.642 286.861,409.309 289.5,407.5 Z"/></g>
<g><path style="opacity:1" fill="#f7f1f2" d="M 158.5,407.5 C 161.33,411.827 163.663,416.493 165.5,421.5C 161.205,422.661 156.871,422.828 152.5,422C 154.918,417.332 156.918,412.499 158.5,407.5 Z"/></g>
<g><path style="opacity:1" fill="#f7eeef" d="M 75.5,420.5 C 81.9251,420.13 88.2584,420.63 94.5,422C 98.5,425 98.5,428 94.5,431C 88.1754,431.5 81.8421,431.666 75.5,431.5C 75.5,427.833 75.5,424.167 75.5,420.5 Z"/></g>
<g><path style="opacity:1" fill="#242324" d="M 151.5,453.5 C 153.124,453.36 154.29,454.027 155,455.5C 156.222,459.61 157.722,463.61 159.5,467.5C 159.167,467.833 158.833,468.167 158.5,468.5C 154.833,463.167 151.167,463.167 147.5,468.5C 147.939,463.475 149.273,458.475 151.5,453.5 Z"/></g>
<g><path style="opacity:1" fill="#262526" d="M 162.5,453.5 C 165.187,453.336 167.854,453.503 170.5,454C 173.167,456 173.167,458 170.5,460C 173.932,462.367 174.265,465.034 171.5,468C 168.518,468.498 165.518,468.665 162.5,468.5C 162.5,463.5 162.5,458.5 162.5,453.5 Z"/></g>
<g><path style="opacity:1" fill="#242324" d="M 180.5,453.5 C 182.124,453.36 183.29,454.027 184,455.5C 185.222,459.61 186.722,463.61 188.5,467.5C 188.167,467.833 187.833,468.167 187.5,468.5C 183.833,463.167 180.167,463.167 176.5,468.5C 176.939,463.475 178.273,458.475 180.5,453.5 Z"/></g>
<g><path style="opacity:1" fill="#242324" d="M 243.5,453.5 C 245.124,453.36 246.29,454.027 247,455.5C 248.222,459.61 249.722,463.61 251.5,467.5C 251.167,467.833 250.833,468.167 250.5,468.5C 246.833,463.167 243.167,463.167 239.5,468.5C 239.939,463.475 241.273,458.475 243.5,453.5 Z"/></g>
<g><path style="opacity:1" fill="#2c2c2c" d="M 299.5,453.5 C 302.85,453.335 306.183,453.502 309.5,454C 306.854,454.497 304.187,454.664 301.5,454.5C 301.5,456.167 301.5,457.833 301.5,459.5C 310.833,460.167 310.833,460.833 301.5,461.5C 301.5,463.167 301.5,464.833 301.5,466.5C 304.247,466.187 306.914,466.52 309.5,467.5C 306.232,468.487 302.898,468.82 299.5,468.5C 299.5,463.5 299.5,458.5 299.5,453.5 Z"/></g>
<g><path style="opacity:1" fill="#efecee" d="M 164.5,454.5 C 166.199,454.34 167.866,454.506 169.5,455C 170.833,456.333 170.833,457.667 169.5,459C 167.866,459.494 166.199,459.66 164.5,459.5C 164.5,457.833 164.5,456.167 164.5,454.5 Z"/></g>
<g><path style="opacity:1" fill="#dedbdd" d="M 152.5,455.5 C 153.864,457.22 154.864,459.22 155.5,461.5C 153.955,462.452 152.288,462.785 150.5,462.5C 150.767,460.035 151.434,457.701 152.5,455.5 Z"/></g>
<g><path style="opacity:1" fill="#dedbdd" d="M 181.5,455.5 C 182.864,457.22 183.864,459.22 184.5,461.5C 182.955,462.452 181.288,462.785 179.5,462.5C 179.767,460.035 180.434,457.701 181.5,455.5 Z"/></g>
<g><path style="opacity:1" fill="#dedbdd" d="M 244.5,455.5 C 245.864,457.22 246.864,459.22 247.5,461.5C 245.955,462.452 244.288,462.785 242.5,462.5C 242.767,460.035 243.434,457.701 244.5,455.5 Z"/></g>
<g><path style="opacity:1" fill="#222122" d="M 257.5,453.5 C 260.983,452.916 263.983,453.749 266.5,456C 264.51,455.862 262.51,455.362 260.5,454.5C 255.099,457.016 254.099,460.849 257.5,466C 260.758,466.616 263.758,466.283 266.5,465C 261.714,470.009 257.548,469.509 254,463.5C 252.755,459.235 253.922,455.902 257.5,453.5 Z"/></g>
<g><path style="opacity:1" fill="#262526" d="M 283.5,453.5 C 290.6,451.557 294.933,454.057 296.5,461C 294.722,467.565 290.389,470.065 283.5,468.5C 283.5,463.5 283.5,458.5 283.5,453.5 Z"/></g>
<g><path style="opacity:1" fill="#eeebed" d="M 285.5,454.5 C 294.307,454.465 296.64,458.298 292.5,466C 290.19,466.497 287.857,466.663 285.5,466.5C 285.5,462.5 285.5,458.5 285.5,454.5 Z"/></g>
<g><path style="opacity:1" fill="#292829" d="M 312.5,453.5 C 313.822,453.33 314.989,453.663 316,454.5C 317.136,458.243 318.47,461.91 320,465.5C 321.793,461.954 323.293,458.287 324.5,454.5C 325.325,453.614 326.325,453.281 327.5,453.5C 327.827,458.544 327.494,463.544 326.5,468.5C 325.675,464.878 325.175,461.211 325,457.5C 323.98,461.402 322.48,465.068 320.5,468.5C 317.897,464.954 316.064,460.954 315,456.5C 314.827,460.541 314.327,464.541 313.5,468.5C 312.506,463.544 312.173,458.544 312.5,453.5 Z"/></g>
<g><path style="opacity:1" fill="#242424" d="M 272.5,453.5 C 273.822,453.33 274.989,453.663 276,454.5C 277.401,458.871 278.901,463.204 280.5,467.5C 280.167,467.833 279.833,468.167 279.5,468.5C 278.929,465.429 277.096,464.096 274,464.5C 271.351,465.237 269.185,466.404 267.5,468C 269.465,463.272 271.132,458.439 272.5,453.5 Z"/></g>
<g><path style="opacity:1" fill="#e1dee0" d="M 273.5,455.5 C 275.448,457.32 276.448,459.654 276.5,462.5C 274.712,462.785 273.045,462.452 271.5,461.5C 272.747,459.677 273.414,457.677 273.5,455.5 Z"/></g>
<g><path style="opacity:1" fill="#1d1c1d" d="M 330.5,454.5 C 330.897,453.475 331.563,453.308 332.5,454C 334.791,460.919 337.291,461.086 340,454.5C 340.654,453.304 341.154,453.304 341.5,454.5C 340.586,456.664 339.419,458.664 338,460.5C 337.223,470.189 336.223,470.522 335,461.5C 333.476,459.102 331.976,456.769 330.5,454.5 Z"/></g>
<g><path style="opacity:1" fill="#f7f4f6" d="M 164.5,461.5 C 166.527,461.338 168.527,461.505 170.5,462C 171.38,463.356 171.714,464.856 171.5,466.5C 169.167,466.5 166.833,466.5 164.5,466.5C 164.5,464.833 164.5,463.167 164.5,461.5 Z"/></g>
<g><path style="opacity:1" fill="#222222" d="M 193.5,453.5 C 196.807,453.063 199.807,453.73 202.5,455.5C 202.167,455.833 201.833,456.167 201.5,456.5C 198.329,453.665 195.496,453.998 193,457.5C 191.478,465.992 194.478,468.325 202,464.5C 202.507,465.996 202.007,467.163 200.5,468C 192.692,468.941 189.525,465.441 191,457.5C 191.662,456.016 192.496,454.683 193.5,453.5 Z"/></g>
<g><path style="opacity:1" fill="#202020" d="M 206.5,453.5 C 207.323,456.977 207.823,460.644 208,464.5C 210.025,466.725 212.358,467.059 215,465.5C 215.173,461.459 215.673,457.459 216.5,453.5C 218.011,458.523 217.678,463.356 215.5,468C 212.331,468.978 209.497,468.478 207,466.5C 206.501,462.179 206.334,457.846 206.5,453.5 Z"/></g>
<g><path style="opacity:1" fill="#212020" d="M 222.5,453.5 C 225.397,453.125 228.063,453.625 230.5,455C 228.231,454.626 225.898,454.626 223.5,455C 222.167,456.333 222.167,457.667 223.5,459C 225.5,459.667 227.5,460.333 229.5,461C 232.75,465.48 231.583,467.98 226,468.5C 223.652,468.742 221.818,467.908 220.5,466C 223.413,466.29 226.413,466.457 229.5,466.5C 229.762,465.022 229.429,463.689 228.5,462.5C 222.375,462.065 220.375,459.065 222.5,453.5 Z"/></g>
</svg>
