<?xml version="1.0" standalone="no"?>
<!DOCTYPE svg PUBLIC "-//W3C//DTD SVG 20010904//EN"
 "http://www.w3.org/TR/2001/REC-SVG-20010904/DTD/svg10.dtd">
<svg version="1.0" xmlns="http://www.w3.org/2000/svg"
 width="500.000000pt" height="500.000000pt" viewBox="0 0 500.000000 500.000000"
 preserveAspectRatio="xMidYMid meet">

<g transform="translate(0.000000,500.000000) scale(0.100000,-0.100000)"
fill="#000000" stroke="none">
<path d="M1690 2671 c0 -5 14 -9 30 -9 17 1 30 5 30 10 0 4 -13 8 -30 8 -16 0
-30 -4 -30 -9z"/>
<path d="M1734 2555 c-7 -18 3 -35 22 -35 8 0 14 10 14 25 0 27 -27 35 -36 10z"/>
<path d="M1360 2481 c-13 -25 -13 -31 0 -31 6 0 10 5 10 11 0 7 8 18 18 25 16
12 16 13 0 14 -10 0 -22 -9 -28 -19z"/>
<path d="M1606 2448 c-5 -10 -5 -25 -2 -34 8 -21 40 -13 43 11 2 11 0 14 -3 8
-9 -20 -22 -15 -27 10 -3 19 -4 20 -11 5z"/>
<path d="M1442 2388 c2 -12 10 -23 18 -23 22 0 19 39 -3 43 -15 3 -18 -1 -15
-20z"/>
<path d="M2090 2354 c0 -3 5 -15 11 -26 8 -15 8 -19 0 -14 -6 4 -12 1 -12 -6
-2 -25 -5 -33 -21 -69 -8 -20 -19 -45 -22 -57 -4 -12 -13 -22 -19 -23 -7 0
-23 -14 -36 -30 -21 -28 -23 -36 -17 -96 7 -63 14 -81 92 -226 18 -32 19 -44
11 -67 -23 -60 -170 -100 -238 -65 -58 31 -96 64 -136 122 -30 43 -39 68 -43
112 -5 55 -5 56 -37 56 -17 0 -29 3 -27 6 4 8 -77 20 -88 13 -4 -2 2 -19 12
-37 11 -18 20 -47 22 -65 2 -34 9 -38 38 -22 16 9 25 3 55 -37 20 -27 54 -85
76 -130 24 -51 46 -83 55 -83 21 0 11 -43 -27 -129 -16 -35 -29 -64 -29 -65 0
-1 20 0 45 2 25 2 59 -1 76 -7 30 -10 34 -9 66 29 51 59 91 54 107 -13 5 -22
11 -27 24 -22 9 5 39 14 67 21 46 13 52 13 77 -6 30 -22 63 -26 73 -9 5 7 14
4 26 -7 18 -16 21 -16 36 -2 14 15 18 15 39 1 20 -13 27 -13 39 -3 13 11 20
11 40 0 20 -11 27 -11 40 0 22 18 19 63 -6 78 -12 8 -18 9 -15 4 3 -5 -1 -15
-9 -22 -12 -10 -15 -9 -15 4 0 9 -8 16 -18 16 -10 0 -23 5 -29 11 -7 7 -17 8
-25 3 -20 -13 -48 -15 -48 -4 0 6 -4 10 -8 10 -5 0 -8 -9 -8 -20 1 -10 -3 -18
-9 -17 -5 1 -9 8 -8 15 0 8 -5 11 -14 8 -9 -4 -22 -1 -29 5 -8 6 -20 9 -27 6
-11 -4 -17 23 -26 126 -11 108 -18 144 -42 195 -16 34 -29 69 -29 76 0 8 -4
17 -9 21 -14 8 -41 137 -41 192 0 26 9 67 20 91 17 37 22 42 38 33 10 -5 24
-6 30 -2 12 7 115 7 137 0 6 -1 20 1 33 5 14 5 28 3 37 -4 10 -8 19 -8 34 0
15 8 27 8 42 0 15 -9 24 -8 35 1 12 9 20 9 39 -1 19 -10 28 -10 39 -1 10 9 20
9 40 0 19 -9 30 -9 37 -2 8 8 18 8 36 0 18 -8 29 -8 42 0 13 8 22 8 29 1 6 -6
22 -8 36 -4 32 8 34 37 6 73 l-20 26 0 -26 c0 -33 -16 -44 -25 -17 -3 11 -15
20 -25 20 -10 0 -20 3 -23 8 -2 4 -3 2 -1 -5 1 -6 -4 -19 -11 -30 -14 -17 -14
-17 -15 5 0 26 -31 30 -50 7 -7 -8 -16 -15 -21 -15 -5 0 -9 7 -9 15 0 8 -6 15
-14 15 -8 0 -21 -7 -30 -15 -19 -20 -23 -19 -29 5 -3 13 -10 18 -21 14 -9 -3
-16 -1 -16 5 0 6 -5 11 -12 11 -9 0 -9 -3 0 -12 8 -8 9 -15 1 -25 -17 -19 -29
-16 -29 7 0 12 -6 20 -12 19 -7 -1 -21 1 -31 6 -10 4 -21 5 -24 1 -4 -3 1 -6
10 -6 19 0 21 -8 7 -30 -9 -15 -25 -7 -25 13 0 7 -8 11 -17 9 -9 -1 -19 2 -23
8 -3 5 -12 10 -18 10 -9 0 -8 -3 1 -8 7 -5 10 -16 6 -25 -9 -23 -24 -21 -24 3
0 25 -11 25 -42 0 -24 -18 -38 -18 -38 2 0 5 10 13 23 18 18 7 19 9 4 9 -10 1
-27 -4 -38 -9 -15 -9 -19 -7 -19 6 0 9 -8 23 -17 30 -18 14 -43 18 -43 8z m40
-703 c5 -11 10 -51 10 -89 0 -64 -2 -70 -25 -80 -35 -16 -56 -15 -85 5 -30 21
-107 22 -140 1 -39 -24 -74 -29 -96 -13 -19 13 -19 15 2 71 l20 58 80 13 c43
7 104 21 134 32 71 25 87 25 100 2z m81 -184 c-13 -13 -26 -3 -16 12 3 6 11 8
17 5 6 -4 6 -10 -1 -17z m159 16 c-1 -18 -18 -35 -24 -24 -4 6 -4 16 -1 21 7
12 25 13 25 3z"/>
<path d="M2510 2310 c0 -5 5 -10 11 -10 5 0 7 5 4 10 -3 6 -8 10 -11 10 -2 0
-4 -4 -4 -10z"/>
<path d="M3075 2300 c-3 -5 -2 -10 4 -10 6 0 8 -7 5 -15 -4 -8 -12 -15 -20
-15 -19 0 -17 -14 4 -33 32 -29 42 -21 42 33 0 37 -4 50 -14 50 -8 0 -18 -4
-21 -10z"/>
<path d="M2090 2070 c0 -25 5 -40 13 -40 7 0 12 15 12 40 0 25 -5 40 -12 40
-8 0 -13 -15 -13 -40z"/>
<path d="M3042 2055 c0 -16 2 -22 5 -12 2 9 2 23 0 30 -3 6 -5 -1 -5 -18z"/>
<path d="M2621 2044 c0 -11 3 -14 6 -6 3 7 2 16 -1 19 -3 4 -6 -2 -5 -13z"/>
<path d="M3101 2024 c0 -11 3 -14 6 -6 3 7 2 16 -1 19 -3 4 -6 -2 -5 -13z"/>
<path d="M2776 1476 c3 -8 1 -17 -5 -21 -6 -3 -11 2 -12 12 0 14 -3 12 -10 -6
-5 -13 -7 -32 -4 -42 8 -23 42 -34 60 -19 10 8 19 8 34 -2 17 -10 25 -10 41 0
16 10 24 10 40 0 16 -10 24 -10 40 -1 12 8 21 9 25 3 8 -13 48 -13 62 1 8 8
13 8 17 0 4 -6 16 -11 27 -11 16 0 19 7 19 50 0 44 -2 50 -21 50 -16 0 -19 -3
-11 -13 7 -8 7 -18 1 -27 -7 -12 -10 -11 -15 8 -4 12 -12 22 -19 22 -8 0 -20
3 -28 6 -12 4 -14 0 -10 -15 3 -12 1 -21 -6 -21 -6 0 -11 7 -11 15 0 8 -9 15
-19 15 -11 0 -26 3 -34 6 -12 4 -14 0 -10 -15 3 -12 1 -21 -6 -21 -6 0 -11 7
-11 16 0 10 -6 14 -15 11 -8 -4 -17 -2 -20 3 -10 16 -23 11 -21 -6 0 -9 -5
-19 -11 -21 -7 -3 -13 3 -13 12 0 9 -6 15 -12 12 -7 -2 -21 0 -30 5 -13 6 -16
5 -12 -6z"/>
<path d="M1248 953 l-137 -4 -3 -154 -3 -155 143 0 c129 0 142 2 142 18 0 15
-11 17 -120 14 l-120 -4 0 56 0 56 85 0 c78 0 85 2 85 20 0 18 -7 20 -85 20
l-85 0 0 50 0 50 120 0 c113 0 120 1 120 20 0 11 -1 19 -2 18 -2 -1 -65 -4
-140 -5z"/>
<path d="M1521 830 c-30 -69 -60 -140 -68 -157 -12 -30 -12 -33 5 -33 12 0 23
14 33 43 l16 42 90 3 90 3 17 -46 c14 -35 23 -45 41 -45 22 0 20 7 -48 154
-63 134 -75 155 -97 158 -24 4 -29 -4 -79 -122z m117 8 c17 -37 28 -69 24 -72
-9 -10 -132 -7 -132 3 0 5 9 31 21 58 11 26 25 59 30 72 12 31 20 23 57 -61z"/>
<path d="M2518 950 c-108 -32 -156 -154 -93 -235 41 -55 97 -79 168 -72 72 7
146 49 126 73 -10 13 -15 12 -33 -5 -47 -44 -128 -54 -185 -23 -38 21 -71 73
-71 113 0 36 39 91 80 112 42 22 127 18 167 -8 21 -14 27 -15 34 -4 14 23 11
26 -49 43 -63 17 -101 19 -144 6z"/>
<path d="M2890 945 c-82 -37 -121 -109 -100 -186 45 -166 319 -153 347 16 9
54 -21 121 -67 151 -49 32 -131 41 -180 19z m135 -29 c68 -29 95 -118 55 -183
-28 -46 -72 -66 -132 -61 -60 6 -98 33 -117 81 -43 114 74 213 194 163z"/>
<path d="M4010 938 c0 -15 10 -18 65 -18 l65 0 0 -140 c0 -139 0 -140 23 -140
22 0 22 1 19 140 l-3 140 70 0 c61 0 71 2 71 18 0 15 -14 17 -155 17 -141 0
-155 -2 -155 -17z"/>
<path d="M720 794 l0 -156 126 3 c123 4 126 5 150 32 32 37 31 72 -5 107 -28
29 -29 29 -8 43 30 20 29 83 -2 108 -20 16 -41 19 -142 19 l-119 0 0 -156z
m231 116 c26 -14 24 -55 -3 -74 -16 -11 -46 -16 -105 -16 l-83 0 0 50 0 50 86
0 c47 0 94 -5 105 -10z m-1 -133 c17 -8 26 -22 28 -43 5 -48 -17 -59 -122 -59
l-91 0 -3 58 -3 57 83 0 c46 0 94 -6 108 -13z"/>
<path d="M1838 795 l-3 -155 95 0 c116 0 157 11 195 50 25 26 30 40 33 98 3
58 0 72 -20 102 -35 52 -59 60 -185 60 l-112 0 -3 -155z m245 104 c55 -42 56
-149 2 -199 -21 -19 -37 -24 -105 -26 -44 -2 -86 -1 -95 2 -12 5 -15 28 -15
125 l0 119 94 0 c79 0 97 -3 119 -21z"/>
<path d="M3220 845 c0 -129 14 -169 64 -190 45 -19 127 -19 170 -1 58 24 66
46 66 179 0 107 -2 118 -17 115 -16 -3 -19 -19 -23 -125 -3 -79 -9 -127 -18
-135 -7 -7 -43 -14 -82 -16 -63 -4 -71 -2 -94 21 -25 25 -26 31 -26 142 0 108
-1 115 -20 115 -19 0 -20 -7 -20 -105z"/>
<path d="M3638 795 c-3 -141 -1 -155 14 -155 16 0 18 15 20 135 l3 135 103
-120 c56 -66 105 -127 108 -135 4 -8 16 -15 29 -15 23 0 23 0 24 155 2 151 1
155 -19 155 -20 0 -21 -5 -20 -102 1 -57 1 -114 1 -126 -1 -19 -23 2 -108 102
-78 90 -114 126 -130 126 -22 0 -22 -3 -25 -155z"/>
<path d="M1497 385 c-14 -41 -22 -75 -17 -75 4 0 10 9 13 20 4 15 14 20 40 20
27 0 37 -5 42 -20 3 -11 10 -20 15 -20 4 0 -4 34 -18 75 -15 41 -32 75 -39 75
-6 0 -23 -34 -36 -75z m63 -12 c0 -7 -11 -13 -25 -13 -28 0 -31 13 -14 57 l11
28 14 -30 c7 -16 13 -36 14 -42z"/>
<path d="M1630 385 l0 -75 39 0 c58 0 91 41 56 70 -11 9 -12 16 -3 30 18 28
-6 50 -53 50 l-39 0 0 -75z m78 38 c3 -20 -1 -23 -32 -23 -32 0 -36 3 -36 26
0 23 3 25 33 22 24 -2 33 -8 35 -25z m-10 -39 c32 -9 30 -52 -3 -60 -35 -9
-55 2 -55 29 0 37 12 43 58 31z"/>
<path d="M1787 385 c-14 -41 -22 -75 -17 -75 4 0 10 9 13 20 4 15 14 20 40 20
27 0 37 -5 42 -20 3 -11 10 -20 15 -20 4 0 -4 34 -18 75 -15 41 -32 75 -39 75
-6 0 -23 -34 -36 -75z m63 -12 c0 -7 -11 -13 -25 -13 -28 0 -31 13 -14 57 l11
28 14 -30 c7 -16 13 -36 14 -42z"/>
<path d="M1944 452 c-16 -10 -34 -48 -34 -70 0 -32 38 -72 69 -72 27 0 51 16
51 34 0 5 -8 2 -18 -7 -10 -10 -25 -17 -34 -17 -41 0 -65 82 -32 114 18 19 38
20 67 4 20 -10 21 -10 8 5 -14 17 -57 22 -77 9z"/>
<path d="M2072 398 c-2 -57 1 -69 17 -78 28 -14 57 -12 75 6 18 18 23 134 6
134 -6 0 -10 -26 -10 -59 0 -64 -15 -87 -49 -76 -23 7 -29 25 -34 95 -3 33 -4
27 -5 -22z"/>
<path d="M2224 446 c-11 -29 1 -49 36 -61 23 -8 36 -19 38 -32 4 -26 -29 -39
-58 -23 -12 7 -24 9 -27 6 -11 -10 46 -28 70 -22 51 12 42 62 -15 82 -22 7
-33 17 -33 30 0 15 7 19 37 18 21 -1 35 3 32 7 -9 15 -74 10 -80 -5z"/>
<path d="M2417 385 c-14 -41 -22 -75 -17 -75 4 0 10 9 13 20 4 15 14 20 40 20
27 0 37 -5 42 -20 3 -11 10 -20 15 -20 4 0 -4 34 -18 75 -15 41 -32 75 -39 75
-6 0 -23 -34 -36 -75z m63 -12 c0 -7 -11 -13 -25 -13 -28 0 -31 13 -14 57 l11
28 14 -30 c7 -16 13 -36 14 -42z"/>
<path d="M2566 441 c-26 -29 -24 -91 4 -113 26 -21 61 -23 78 -6 19 19 14 33
-6 15 -24 -22 -45 -21 -65 1 -48 53 21 150 71 100 8 -8 12 -8 12 -1 0 28 -70
31 -94 4z"/>
<path d="M2709 385 c-14 -41 -22 -75 -18 -75 4 0 11 9 14 20 5 15 15 20 42 20
26 0 36 -5 40 -20 3 -11 9 -20 13 -20 5 0 -3 34 -17 75 -13 41 -30 75 -36 75
-7 0 -24 -34 -38 -75z m57 7 c6 -30 4 -32 -20 -32 -29 0 -31 4 -15 49 13 37
26 31 35 -17z"/>
<path d="M2848 423 c-4 -107 -2 -113 35 -113 53 0 77 24 77 75 0 51 -24 75
-77 75 -31 0 -33 -2 -35 -37z m84 10 c40 -36 8 -113 -47 -113 -24 0 -25 2 -25
65 0 64 1 65 27 65 14 0 35 -7 45 -17z"/>
<path d="M3008 444 c-2 -9 -1 -43 0 -75 l4 -59 46 2 47 1 -42 4 c-40 4 -43 6
-43 33 0 25 4 29 33 33 l32 4 -32 1 c-29 2 -33 5 -33 31 0 27 4 30 38 34 l37
4 -42 1 c-31 2 -42 -2 -45 -14z"/>
<path d="M3137 388 c6 -92 13 -101 14 -17 l0 64 22 -56 c12 -31 26 -58 32 -60
5 -2 20 23 32 56 l22 60 0 -62 c1 -35 5 -63 11 -63 6 0 10 32 10 75 0 93 -17
100 -45 19 -10 -30 -22 -57 -26 -59 -3 -3 -17 22 -29 55 -32 85 -49 79 -43
-12z"/>
<path d="M3335 417 c14 -24 26 -59 26 -78 l1 -34 7 36 c4 20 18 52 30 73 13
20 21 39 18 42 -2 3 -14 -12 -27 -33 l-22 -37 -21 37 c-11 20 -25 37 -29 37
-5 0 3 -20 17 -43z"/>
</g>
</svg>
